<svg width="100" height="100" viewBox="0 0 100 100" fill="none" xmlns="http://www.w3.org/2000/svg">
<path fill-rule="evenodd" clip-rule="evenodd" d="M45.5328 2.75019C55.0315 2.99161 64.7468 -1.0196 73.3183 4.02183C82.7996 9.59832 90.2905 19.6434 94.4455 31.5186C98.8638 44.1466 103.018 60.0685 96.9748 71.6333C90.8781 83.3011 76.4297 80.3796 66.0639 85.8354C58.8246 89.6456 53.3021 97.1337 45.5328 98.7084C36.6786 100.503 26.9665 101.26 19.4184 95.2897C11.7089 89.1919 8.72317 77.6295 5.52365 67.0633C2.17887 56.0174 -1.44424 44.624 0.588354 33.1048C2.74038 20.9088 8.008 8.59371 16.9005 2.58788C25.4768 -3.20436 35.7513 2.50157 45.5328 2.75019Z" fill="#F4F5FB"/>
</svg>
