<svg width="20" height="20" viewBox="0 0 20 20" fill="none" xmlns="http://www.w3.org/2000/svg">
<path fill-rule="evenodd" clip-rule="evenodd" d="M2.00024 0.000488281H18.0002C19.1048 0.000488281 20.0002 0.895919 20.0002 2.00049V18.0005C20.0002 19.1051 19.1048 20.0005 18.0002 20.0005H2.00024C0.895675 20.0005 0.000244141 19.1051 0.000244141 18.0005V2.00049C0.000244141 0.895919 0.895675 0.000488281 2.00024 0.000488281ZM2.00024 2.00049V18.0005H18.0002V2.00049H2.00024ZM9.1333 10.0049H11.0002V16.0005H13.0002V10.0049H14.9827V8.00488H13.0002V7.00049C13.0002 6.4482 13.448 6.00049 14.0002 6.00049H15.0002V4.00049H14.0002C12.3434 4.00049 11.0002 5.34363 11.0002 7.00049V8.00488H9.1333V10.0049Z" fill="#1047C5"/>
</svg>
