<svg width="14" height="14" viewBox="0 0 14 14" fill="none" xmlns="http://www.w3.org/2000/svg">
<path fill-rule="evenodd" clip-rule="evenodd" d="M8.4 2.8C8.4 3.00119 8.42122 3.19743 8.46154 3.3866L4.91186 5.16144C4.39854 4.57232 3.64275 4.2 2.8 4.2C1.2536 4.2 0 5.4536 0 7C0 8.5464 1.2536 9.8 2.8 9.8C3.64275 9.8 4.39854 9.42768 4.91186 8.83856L8.46154 10.6134C8.42122 10.8026 8.4 10.9988 8.4 11.2C8.4 12.7464 9.6536 14 11.2 14C12.7464 14 14 12.7464 14 11.2C14 9.6536 12.7464 8.4 11.2 8.4C10.3572 8.4 9.60145 8.77232 9.08814 9.36145L5.53845 7.58661C5.57878 7.39744 5.6 7.2012 5.6 7C5.6 6.7988 5.57878 6.60256 5.53845 6.41339L9.08814 4.63855C9.60145 5.22768 10.3572 5.6 11.2 5.6C12.7464 5.6 14 4.3464 14 2.8C14 1.2536 12.7464 0 11.2 0C9.6536 0 8.4 1.2536 8.4 2.8ZM4.2 7C4.2 7.7732 3.5732 8.4 2.8 8.4C2.0268 8.4 1.4 7.7732 1.4 7C1.4 6.2268 2.0268 5.6 2.8 5.6C3.5732 5.6 4.2 6.2268 4.2 7ZM11.2 4.2C11.9732 4.2 12.6 3.5732 12.6 2.8C12.6 2.0268 11.9732 1.4 11.2 1.4C10.4268 1.4 9.8 2.0268 9.8 2.8C9.8 3.5732 10.4268 4.2 11.2 4.2ZM12.6 11.2C12.6 11.9732 11.9732 12.6 11.2 12.6C10.4268 12.6 9.8 11.9732 9.8 11.2C9.8 10.4268 10.4268 9.8 11.2 9.8C11.9732 9.8 12.6 10.4268 12.6 11.2Z" fill="#77839D"/>
</svg>
