<svg width="102" height="7" viewBox="0 0 102 7" fill="none" xmlns="http://www.w3.org/2000/svg">
<path d="M1 3.5C4.33333 0.166667 7.66667 0.166667 11 3.5C14.3333 6.83333 17.6667 6.83333 21 3.5C24.3333 0.166667 27.6667 0.166667 31 3.5C34.3333 6.83333 37.6667 6.83333 41 3.5C44.3333 0.166667 47.6667 0.166667 51 3.5C54.3333 6.83333 57.6667 6.83333 61 3.5C64.3333 0.166667 67.6667 0.166667 71 3.5C74.3333 6.83333 77.6667 6.83333 81 3.5C84.3333 0.166667 87.6667 0.166667 91 3.5C94.3333 6.83333 97.6666 6.83333 101 3.5" stroke="white" stroke-width="2"/>
</svg>
