<svg width="102" height="7" viewBox="0 0 102 7" fill="none" xmlns="http://www.w3.org/2000/svg">
<path d="M1 3.50037C4.33333 0.167033 7.66667 0.167033 11 3.50037C14.3333 6.8337 17.6667 6.8337 21 3.50037C24.3333 0.167033 27.6667 0.167033 31 3.50037C34.3333 6.8337 37.6667 6.8337 41 3.50037C44.3333 0.167033 47.6667 0.167033 51 3.50037C54.3333 6.8337 57.6667 6.8337 61 3.50037C64.3333 0.167033 67.6667 0.167033 71 3.50037C74.3333 6.8337 77.6667 6.8337 81 3.50037C84.3333 0.167033 87.6667 0.167033 91 3.50037C94.3333 6.8337 97.6666 6.8337 101 3.50037" stroke="#4C75F2" stroke-width="2"/>
</svg>
