<svg width="100" height="100" viewBox="0 0 100 100" fill="none" xmlns="http://www.w3.org/2000/svg">
<path fill-rule="evenodd" clip-rule="evenodd" d="M45.8323 1.50512C57.0832 2.62665 68.7165 4.72387 77.0556 12.0512C84.9511 18.9887 85.6272 30.0673 89.3113 39.7086C93.1844 49.8445 102.922 59.6911 99.1455 69.8604C95.3653 80.0389 81.3536 81.8314 71.6354 87.3021C63.1072 92.1029 55.6903 99.113 45.8323 99.8721C35.5188 100.666 24.8774 97.7586 16.8312 91.5221C9.00227 85.4541 5.81918 75.8632 2.928 66.6179C0.102235 57.5818 -0.565158 48.4971 0.441855 39.1132C1.71467 27.2523 0.0965787 13.114 9.50629 5.31763C18.9537 -2.51001 33.4127 0.267097 45.8323 1.50512Z" fill="#F4F5FB"/>
</svg>
