<svg width="100" height="100" viewBox="0 0 100 100" fill="none" xmlns="http://www.w3.org/2000/svg">
<path fill-rule="evenodd" clip-rule="evenodd" d="M50.8202 6.77639C62.019 6.52419 73.3066 -4.00587 83.2831 1.68529C93.3207 7.41124 96.4255 21.8792 98.8546 34.1777C101.102 45.5583 99.9126 57.1968 96.4158 68.1767C93.0004 78.9009 88.0556 89.6006 79.3321 95.4772C70.9406 101.13 60.6178 98.7701 50.8202 98.8925C40.8845 99.0167 41.9627 90.5931 33.8411 84.1957C25.6949 77.7791 13.3079 76.9369 9.74264 66.5361C5.92359 55.3949 -1.50335 45.0289 0.268835 33.2637C2.14083 20.8359 9.0837 8.4762 19.294 3.12631C29.0998 -2.0116 39.9924 7.02023 50.8202 6.77639Z" fill="#F4F5FB"/>
</svg>
