<svg width="20" height="20" viewBox="0 0 20 20" fill="none" xmlns="http://www.w3.org/2000/svg">
<path fill-rule="evenodd" clip-rule="evenodd" d="M8 15.9995C3.58172 15.9995 0 12.4178 0 7.99951C0 3.58123 3.58172 -0.000488281 8 -0.000488281C12.4183 -0.000488281 16 3.58123 16 7.99951C16 9.84822 15.3729 11.5505 14.3199 12.9052L19.7071 18.2924L18.2929 19.7066L12.9056 14.3194C11.551 15.3724 9.84871 15.9995 8 15.9995ZM14 7.99951C14 11.3132 11.3137 13.9995 8 13.9995C4.68629 13.9995 2 11.3132 2 7.99951C2 4.6858 4.68629 1.99951 8 1.99951C11.3137 1.99951 14 4.6858 14 7.99951Z" fill="#1047C5"/>
</svg>
