<svg width="20" height="20" viewBox="0 0 20 20" fill="none" xmlns="http://www.w3.org/2000/svg">
<path fill-rule="evenodd" clip-rule="evenodd" d="M14.0002 0.000488281H6.00024C2.68654 0.000488281 0.000244141 2.68678 0.000244141 6.00049V14.0005C0.000244141 17.3142 2.68654 20.0005 6.00024 20.0005H14.0002C17.314 20.0005 20.0002 17.3142 20.0002 14.0005V6.00049C20.0002 2.68678 17.314 0.000488281 14.0002 0.000488281ZM2.00024 6.00049C2.00024 3.79135 3.79111 2.00049 6.00024 2.00049H14.0002C16.2094 2.00049 18.0002 3.79135 18.0002 6.00049V14.0005C18.0002 16.2096 16.2094 18.0005 14.0002 18.0005H6.00024C3.79111 18.0005 2.00024 16.2096 2.00024 14.0005V6.00049ZM10.0002 15.0005C7.23882 15.0005 5.00024 12.7619 5.00024 10.0005C5.00024 7.23906 7.23882 5.00049 10.0002 5.00049C12.7617 5.00049 15.0002 7.23906 15.0002 10.0005C15.0002 12.7619 12.7617 15.0005 10.0002 15.0005ZM10.0002 13.0005C11.6571 13.0005 13.0002 11.6573 13.0002 10.0005C13.0002 8.34363 11.6571 7.00049 10.0002 7.00049C8.34339 7.00049 7.00024 8.34363 7.00024 10.0005C7.00024 11.6573 8.34339 13.0005 10.0002 13.0005ZM16.0002 5.00049C16.0002 5.55277 15.5525 6.00049 15.0002 6.00049C14.448 6.00049 14.0002 5.55277 14.0002 5.00049C14.0002 4.4482 14.448 4.00049 15.0002 4.00049C15.5525 4.00049 16.0002 4.4482 16.0002 5.00049Z" fill="#1047C5"/>
</svg>
