<svg width="200" height="47" viewBox="0 0 200 47" fill="none" xmlns="http://www.w3.org/2000/svg">
<path d="M4.56005 40.1898L5.78005 40.9198L5.92005 40.8598L4.55005 40.0298C4.56005 40.0798 4.56005 40.1298 4.56005 40.1898Z" fill="#1047C5"/>
<path d="M2.95989 37.9L3.62989 38.31C3.70989 38.33 3.79989 38.34 3.90989 38.4C3.94989 38.42 4.12989 38.52 4.27989 38.71L8.95989 41.57C9.00989 41.56 9.06989 41.56 9.11989 41.55C9.13989 41.55 9.14989 41.54 9.16989 41.54L2.88989 37.71V37.73C2.90989 37.79 2.92989 37.85 2.95989 37.9Z" fill="#1047C5"/>
<path d="M2.92008 36.5798L10.1201 40.9698C10.1501 40.9398 10.1801 40.9098 10.2101 40.8698L2.85008 36.3798C2.88008 36.4398 2.91008 36.5098 2.92008 36.5798ZM1.42008 35.5098L1.08008 35.2998C1.10008 35.3198 1.13008 35.3398 1.16008 35.3598C1.25008 35.4398 1.28008 35.4498 1.42008 35.5098Z" fill="#1047C5"/>
<path d="M0.219961 33.6202L10.82 40.1002C10.85 40.0602 10.88 40.0302 10.91 40.0002L0.209961 33.4702C0.209961 33.5202 0.209961 33.5702 0.219961 33.6202Z" fill="#1047C5"/>
<path d="M0.48999 32.4901L11.96 39.4901C12.03 39.4901 12.1 39.4801 12.19 39.4801L0.55999 32.3701C0.52999 32.4101 0.50999 32.4501 0.48999 32.4901ZM22.76 46.0901L24.23 46.9801C24.31 46.9801 24.39 46.9801 24.46 46.9701L22.71 45.9001C22.73 45.9601 22.74 46.0301 22.76 46.0901Z" fill="#1047C5"/>
<path d="M1.33008 31.6998L14.5401 39.7598C14.5901 39.7498 14.6401 39.7298 14.6901 39.6998L1.40008 31.5898C1.38008 31.6298 1.36008 31.6598 1.34008 31.6798L1.33008 31.6998ZM22.9001 44.8598L26.1001 46.8198C26.1801 46.8198 26.2501 46.8098 26.3301 46.8098L22.9601 44.7498L22.9001 44.8598Z" fill="#1047C5"/>
<path d="M0.01 29.5802L14.94 38.7102L14.92 38.5902L14.91 38.5302L0 29.4302C0 29.4802 0 29.5302 0.01 29.5802ZM23.39 43.8602L28.24 46.8302C28.33 46.8302 28.42 46.8302 28.51 46.8402L23.44 43.7402L23.39 43.8602Z" fill="#1047C5"/>
<path d="M0.370117 28.5099L14.5601 37.1699C14.5601 37.1299 14.5701 37.0799 14.5801 37.0299L0.450117 28.3999C0.420117 28.4299 0.400117 28.4599 0.370117 28.5099ZM23.7601 42.7899L30.6101 46.9699C30.7001 46.9699 30.7901 46.9799 30.8801 46.9799L23.8001 42.6599C23.7901 42.6999 23.7801 42.7499 23.7601 42.7899Z" fill="#1047C5"/>
<path d="M0.610098 27.3499L15.0401 36.1599C15.0701 36.1299 15.1101 36.0999 15.1401 36.0699L0.600098 27.1899C0.610098 27.2399 0.610098 27.2899 0.610098 27.3499ZM24.0401 41.6499L32.6301 46.8999C32.6901 46.8899 32.7501 46.8699 32.8101 46.8599L24.0601 41.5099C24.0501 41.5599 24.0501 41.6099 24.0401 41.6499Z" fill="#1047C5"/>
<path d="M0.590088 26.0302L15.9601 35.4202C16.0001 35.3902 16.0401 35.3602 16.0701 35.3302L0.640088 25.9102C0.620088 25.9502 0.610088 25.9902 0.590088 26.0302ZM23.8801 40.2502L33.6501 46.2202C33.6801 46.1802 33.7001 46.1402 33.7101 46.1002L23.8101 40.0602C23.8301 40.1202 23.8601 40.1902 23.8801 40.2502Z" fill="#1047C5"/>
<path d="M1.36011 25.1999L17.2801 34.9199C17.3601 34.9099 17.4401 34.9099 17.5201 34.9099L1.49011 25.1299C1.45011 25.1499 1.41011 25.1699 1.36011 25.1999ZM23.6601 38.8199L33.6401 44.9099C33.6201 44.8399 33.5901 44.7799 33.5701 44.7199L23.6801 38.6799C23.6801 38.7199 23.6701 38.7699 23.6601 38.8199Z" fill="#1047C5"/>
<path d="M1.65991 24.0802L20.7499 35.7302C20.9399 35.8002 21.1099 35.8502 21.2699 35.9002L1.65991 23.9302C1.65991 23.9802 1.65991 24.0302 1.65991 24.0802ZM23.5499 37.4502L32.8999 43.1502C32.8699 43.0902 32.8499 43.0202 32.8199 42.9602L23.3899 37.2002C23.4499 37.2802 23.4999 37.3602 23.5499 37.4502Z" fill="#1047C5"/>
<path d="M1.95996 22.9601L32.39 41.5401C32.38 41.4901 32.37 41.4301 32.36 41.3701L2.02996 22.8501L2.00996 22.8801C1.98996 22.9101 1.97996 22.9301 1.95996 22.9601Z" fill="#1047C5"/>
<path d="M21.74 33.7302L32.24 40.1502C32.24 40.1002 32.24 40.0502 32.24 40.0002L21.96 33.7202C21.88 33.7302 21.8 33.7302 21.74 33.7302Z" fill="#1047C5"/>
<path d="M20.74 32.9701L2.86998 22.0601C2.82998 22.0801 2.77998 22.1001 2.72998 22.1301L20.7 33.1001L20.74 32.9701Z" fill="#1047C5"/>
<path d="M21.1 31.8899L4.31999 21.6499C4.29999 21.6799 4.26999 21.7099 4.23999 21.7399L21.06 32.0099L21.1 31.8899Z" fill="#1047C5"/>
<path d="M23.55 33.5398L32.31 38.8898L32.33 38.7498L23.75 33.5098C23.68 33.5198 23.62 33.5298 23.55 33.5398Z" fill="#1047C5"/>
<path d="M25.2 33.2402L32.43 37.6602L32.45 37.5102L25.38 33.2002C25.32 33.2102 25.26 33.2302 25.2 33.2402Z" fill="#1047C5"/>
<path d="M21.46 30.8098L2.98999 19.5298C3.03999 19.5798 3.08999 19.6298 3.12999 19.6798C3.22999 19.7798 3.30999 19.8598 3.38999 19.9198L21.42 30.9298L21.46 30.8098Z" fill="#1047C5"/>
<path d="M26.73 32.8698L32.79 36.5698C32.81 36.5398 32.84 36.5098 32.87 36.4698L26.9 32.8198C26.84 32.8398 26.78 32.8498 26.73 32.8698Z" fill="#1047C5"/>
<path d="M21.8201 29.7201L2.37012 17.8501C2.37012 17.8901 2.37012 17.9501 2.37012 18.0001L21.7801 29.8501L21.8201 29.7201Z" fill="#1047C5"/>
<path d="M28.1599 32.4401L34.1799 36.1201C34.2899 36.1201 34.3799 36.1301 34.4699 36.1401L28.3199 32.3901C28.2599 32.4001 28.2099 32.4201 28.1599 32.4401Z" fill="#1047C5"/>
<path d="M22.1801 28.6402L2.63009 16.7002C2.62009 16.7502 2.60009 16.7902 2.59009 16.8302L22.1401 28.7702L22.1801 28.6402Z" fill="#1047C5"/>
<path d="M29.48 31.9499L36.9 36.4799C36.98 36.4799 37.06 36.4699 37.14 36.4699L29.63 31.8799C29.58 31.8999 29.53 31.9299 29.48 31.9499Z" fill="#1047C5"/>
<path d="M23.7501 28.2901L2.90008 15.5601L2.83008 15.6701L23.5301 28.3101C23.6001 28.3101 23.6701 28.3001 23.7501 28.2901Z" fill="#1047C5"/>
<path d="M3.4699 14.6099L3.3999 14.7199L24.0099 27.2999C23.9799 27.2399 23.9599 27.1699 23.9399 27.1099L3.4699 14.6099Z" fill="#1047C5"/>
<path d="M30.7 31.3898L38.89 36.3898C38.98 36.3898 39.06 36.3898 39.14 36.3898L30.84 31.3198C30.79 31.3398 30.75 31.3598 30.7 31.3898Z" fill="#1047C5"/>
<path d="M31.8101 30.7602L44.8801 38.7402C45.1201 38.8302 45.3201 38.9002 45.4801 38.9602L31.9301 30.6802C31.8901 30.7102 31.8501 30.7402 31.8101 30.7602ZM47.3901 40.1202L46.3801 39.5102C46.5101 39.6702 46.7901 40.0002 47.2201 40.1002C47.2401 40.1002 47.3001 40.1202 47.3901 40.1202Z" fill="#1047C5"/>
<path d="M4.19995 13.9099L23.8 25.8699C23.8 25.8199 23.8099 25.7799 23.8099 25.7299L4.36995 13.8599C4.30995 13.8699 4.24995 13.8899 4.19995 13.9099Z" fill="#1047C5"/>
<path d="M32.8 30.0602L48.55 39.6802L48.58 39.6702C48.63 39.6502 48.66 39.6302 48.71 39.6302L32.9 29.9702C32.87 30.0002 32.83 30.0302 32.8 30.0602Z" fill="#1047C5"/>
<path d="M5.95996 13.6699L24.06 24.7299C24.07 24.6899 24.09 24.6499 24.11 24.6099L6.21996 13.6799H6.17996C6.09996 13.6799 6.02996 13.6699 5.95996 13.6699Z" fill="#1047C5"/>
<path d="M33.6499 29.2799L50.7399 39.7099C50.8599 39.7199 50.9399 39.7199 50.9899 39.7199L33.7399 29.1899C33.7099 29.2199 33.6799 29.2499 33.6499 29.2799Z" fill="#1047C5"/>
<path d="M7.97998 13.6098L24.59 23.7498C24.62 23.7098 24.64 23.6798 24.67 23.6498L8.09998 13.5298C8.05998 13.5598 8.01998 13.5898 7.97998 13.6098Z" fill="#1047C5"/>
<path d="M8.52002 12.6302L25.3 22.8802C25.33 22.8502 25.36 22.8202 25.39 22.7802L8.53002 12.4902C8.53002 12.5402 8.52002 12.5902 8.52002 12.6302Z" fill="#1047C5"/>
<path d="M34.3701 28.4101L52.5501 39.5201C52.5801 39.4901 52.6001 39.4501 52.6201 39.4101L34.4401 28.3101C34.4201 28.3401 34.3901 28.3801 34.3701 28.4101Z" fill="#1047C5"/>
<path d="M8.83008 11.5199L26.1201 22.0799C26.1501 22.0499 26.1901 22.0199 26.2201 21.9899L8.88008 11.3999L8.83008 11.5199Z" fill="#1047C5"/>
<path d="M34.9199 27.4501L53.1699 38.5901C53.1999 38.5601 53.2299 38.5301 53.2599 38.4901L34.9699 27.3301C34.9499 27.3701 34.9399 27.4101 34.9199 27.4501Z" fill="#1047C5"/>
<path d="M35.28 26.37L53.99 37.79C54.03 37.76 54.07 37.73 54.11 37.71L35.31 26.23C35.3 26.28 35.29 26.32 35.28 26.37Z" fill="#1047C5"/>
<path d="M24.27 19.4898L9.28999 10.3398L9.23999 10.4698L24.57 19.8298C24.47 19.7198 24.37 19.6098 24.27 19.4898Z" fill="#1047C5"/>
<path d="M23.2099 17.5398L9.70991 9.2998C9.68991 9.3398 9.66991 9.3798 9.65991 9.4198L23.2699 17.7298C23.2499 17.6698 23.2299 17.6098 23.2099 17.5398Z" fill="#1047C5"/>
<path d="M35.4299 25.07C35.4299 25.1 35.4299 25.13 35.4299 25.15L55.1399 37.19C55.1499 37.16 55.1699 37.11 55.1899 37.07L35.4299 25C35.4299 25.02 35.4299 25.05 35.4299 25.07Z" fill="#1047C5"/>
<path d="M35.2499 23.7398L55.4899 36.0998C55.4899 36.0398 55.4899 35.9898 55.4799 35.9398L35.1899 23.5498C35.2099 23.6098 35.2299 23.6798 35.2499 23.7398Z" fill="#1047C5"/>
<path d="M22.9899 16.0998L10.2399 8.31982L10.1799 8.42982L22.9899 16.2598C22.9899 16.2098 22.9899 16.1498 22.9899 16.0998Z" fill="#1047C5"/>
<path d="M34.1501 21.7699L56.0801 35.1599C56.1401 35.1399 56.1901 35.1199 56.2501 35.1099L33.8301 21.4199C33.9401 21.5299 34.0501 21.6499 34.1501 21.7699Z" fill="#1047C5"/>
<path d="M23.06 14.8399L10.83 7.37988C10.81 7.40988 10.78 7.44988 10.76 7.47988L23.04 14.9799C23.05 14.9399 23.05 14.8899 23.06 14.8399Z" fill="#1047C5"/>
<path d="M57.0799 34.3202L32.7399 19.4502C32.6999 19.4802 32.6699 19.5102 32.6399 19.5402L57.0699 34.4602C57.0799 34.4202 57.0799 34.3702 57.0799 34.3202Z" fill="#1047C5"/>
<path d="M23.34 13.7101L11.65 6.58008C11.61 6.60008 11.57 6.62008 11.53 6.65008L23.3 13.8401C23.31 13.8001 23.32 13.7501 23.34 13.7101Z" fill="#1047C5"/>
<path d="M57.1201 33.04L33.3901 18.54C33.3701 18.58 33.3401 18.62 33.3201 18.66L57.1001 33.17C57.1001 33.13 57.1101 33.09 57.1201 33.04Z" fill="#1047C5"/>
<path d="M23.79 12.6798L14.94 7.27979C14.88 7.30979 14.83 7.31979 14.79 7.32979L14.78 7.33979L23.73 12.7998C23.75 12.7598 23.77 12.7198 23.79 12.6798Z" fill="#1047C5"/>
<path d="M24.3999 11.7501L16.0299 6.64014L15.9699 6.69014L15.9099 6.72014L24.3199 11.8601C24.3399 11.8201 24.3699 11.7901 24.3999 11.7501Z" fill="#1047C5"/>
<path d="M57.3599 31.8802L33.6899 17.4302C33.6899 17.4802 33.6899 17.5302 33.6799 17.5702L57.3599 32.0302C57.3599 31.9802 57.3599 31.9302 57.3599 31.8802Z" fill="#1047C5"/>
<path d="M25.1399 10.8999L18.9699 7.13992C18.7799 7.05992 18.6399 6.96992 18.5299 6.86992L17.4299 6.19992C17.3499 6.17992 17.2499 6.16992 17.1399 6.16992L25.0399 10.9899C25.0699 10.9599 25.0999 10.9299 25.1399 10.8999Z" fill="#1047C5"/>
<path d="M56.1 29.8L33.46 15.98C33.48 16.04 33.51 16.11 33.53 16.18L56.42 30.15C56.32 30.05 56.22 29.94 56.1 29.8Z" fill="#1047C5"/>
<path d="M26 10.12L21.36 7.29004C21.31 7.32004 21.26 7.34004 21.22 7.36004L25.89 10.21C25.93 10.18 25.96 10.15 26 10.12Z" fill="#1047C5"/>
<path d="M32.13 14.0201L55.22 28.1201C55.22 28.0801 55.23 28.0301 55.24 27.9801L31.76 13.6401C31.88 13.7601 32.01 13.8901 32.13 14.0201Z" fill="#1047C5"/>
<path d="M26.97 9.4099L22.04 6.3999C22.02 6.4499 22.01 6.4899 22 6.5299L26.85 9.4899C26.89 9.4699 26.93 9.4399 26.97 9.4099Z" fill="#1047C5"/>
<path d="M31.9199 12.5898L55.8499 27.1998C55.8899 27.1798 55.9399 27.1498 55.9799 27.1298L32.0999 12.5498C32.0399 12.5598 31.9799 12.5798 31.9199 12.5898Z" fill="#1047C5"/>
<path d="M28.0501 8.77004L22.3501 5.29004L22.3101 5.42004L27.9201 8.84004C27.9601 8.82004 28.0101 8.79004 28.0501 8.77004Z" fill="#1047C5"/>
<path d="M33.6101 12.3198L56.5701 26.3398C56.5801 26.2898 56.5901 26.2498 56.6001 26.1998L33.8301 12.2998C33.7601 12.2998 33.6801 12.3098 33.6101 12.3198Z" fill="#1047C5"/>
<path d="M29.23 8.19L22.78 4.25C22.76 4.29 22.74 4.33 22.72 4.37L29.09 8.26C29.14 8.23 29.19 8.21 29.23 8.19Z" fill="#1047C5"/>
<path d="M35.1599 11.9601L50.6099 21.3901C50.6199 21.3601 50.6499 21.3201 50.6799 21.2801L35.1999 11.8301L35.1599 11.9601ZM51.8399 22.1401L56.1499 24.7801C55.9499 24.6001 55.7499 24.5801 55.3199 24.2001C55.2299 24.1201 55.1499 24.0401 55.0699 23.9601L51.9999 22.0901C51.9499 22.1101 51.8999 22.1301 51.8399 22.1401Z" fill="#1047C5"/>
<path d="M35.51 10.8702L51.46 20.6102C51.51 20.5802 51.55 20.5602 51.59 20.5402L35.55 10.7402L35.51 10.8702ZM53.4 21.7902L54.25 22.3102C54.12 22.1402 53.94 21.9602 53.69 21.8602C53.59 21.8202 53.49 21.8002 53.4 21.7902Z" fill="#1047C5"/>
<path d="M30.5201 7.67004L23.7601 3.54004L23.5901 3.60004L30.3601 7.73004C30.4201 7.71004 30.4701 7.69004 30.5201 7.67004Z" fill="#1047C5"/>
<path d="M35.8501 9.7799L52.3501 19.8499C52.3801 19.8199 52.4001 19.7799 52.4201 19.7399L35.8901 9.6499L35.8501 9.7799Z" fill="#1047C5"/>
<path d="M31.9099 7.22023L24.9899 2.99023C24.9699 3.03023 24.9399 3.06023 24.9099 3.10023L31.7399 7.27023C31.7999 7.25023 31.8499 7.24023 31.9099 7.22023Z" fill="#1047C5"/>
<path d="M36.2 8.69006L52.8 18.8201C52.8099 18.7801 52.82 18.7401 52.83 18.6901L36.24 8.56006L36.2 8.69006Z" fill="#1047C5"/>
<path d="M33.43 6.8401L25.25 1.8501C25.23 1.8901 25.22 1.9301 25.21 1.9801L33.24 6.8801C33.3 6.8701 33.37 6.8501 33.43 6.8401Z" fill="#1047C5"/>
<path d="M36.54 7.59021L52.85 17.5502C52.84 17.4902 52.83 17.4402 52.82 17.3802L36.58 7.47021L36.54 7.59021Z" fill="#1047C5"/>
<path d="M35.12 6.57994L25.89 0.939941C25.86 0.969941 25.83 0.999941 25.79 1.02994L34.91 6.59994C34.98 6.58994 35.06 6.57994 35.12 6.57994Z" fill="#1047C5"/>
<path d="M26.8501 0.369824L52.3701 15.9598C52.3401 15.8898 52.3201 15.8198 52.2901 15.7498L27.0101 0.319824C26.9601 0.339824 26.9001 0.349824 26.8501 0.369824Z" fill="#1047C5"/>
<path d="M28.4099 0.02L39.8299 7L39.8399 6.85L28.6199 0C28.5499 0 28.4799 0.01 28.4099 0.02ZM41.3199 7.9L51.7699 14.28C51.7599 14.23 51.7599 14.17 51.7599 14.12L41.4599 7.84C41.4399 7.85 41.4199 7.86 41.3899 7.87C41.3699 7.88 41.3499 7.89 41.3199 7.9Z" fill="#1047C5"/>
<path d="M30.8799 0.22998L33.3699 1.74998L33.3399 1.70998C33.3299 1.68998 33.2599 1.58998 33.1299 1.44998L31.4099 0.39998L31.3899 0.38998C31.2199 0.33998 31.0499 0.27998 30.8799 0.22998ZM34.5099 2.44998L39.7499 5.63998C39.6999 5.54998 39.6399 5.45998 39.5699 5.37998L34.7899 2.45998C34.6899 2.45998 34.5999 2.44998 34.5099 2.44998ZM42.1499 7.10998L52.2899 13.3C52.2999 13.28 52.3199 13.25 52.3299 13.22L52.3399 13.18L42.2399 7.00998C42.2099 7.04998 42.1799 7.07998 42.1499 7.10998Z" fill="#1047C5"/>
<path d="M36.5601 2.39014L38.0101 3.28014C37.9201 3.17014 37.7901 3.02014 37.6201 2.89014L37.0801 2.55014C36.8801 2.47014 36.7101 2.42014 36.5601 2.39014ZM43.2101 6.45014L51.8101 11.7101C51.7801 11.6301 51.7701 11.5701 51.7601 11.5201L43.5101 6.48014C43.3801 6.47014 43.2801 6.46014 43.2101 6.45014Z" fill="#1047C5"/>
<path d="M45.4199 6.5002L47.4699 7.7502C47.4399 7.6902 47.4199 7.6302 47.4099 7.5602L45.5899 6.4502C45.5199 6.4702 45.4699 6.4802 45.4199 6.5002ZM48.2999 8.2602L50.0399 9.3202C50.0299 9.2702 50.0099 9.2002 49.9799 9.1302L48.6899 8.3502C48.6299 8.3402 48.5599 8.3202 48.4799 8.3002C48.4199 8.2902 48.3599 8.2702 48.2999 8.2602Z" fill="#1047C5"/>
<path d="M28.0101 22.2201C27.8501 22.1101 27.7001 22.0001 27.5501 21.8901C26.0801 23.0801 24.8501 24.3001 24.6301 25.5601C24.4501 26.5801 24.7801 27.3601 25.4201 28.0901C25.6301 28.0501 25.8401 28.0101 26.0501 27.9701C25.3201 27.2401 25.0101 26.5701 25.1701 25.6501C25.3701 24.5301 26.5801 23.3701 28.0101 22.2201Z" fill="#1047C5"/>
<path d="M25.41 15.6598C25.66 15.0598 26.15 14.4898 26.77 13.9698C28.58 12.2998 31.82 11.3098 34.31 11.2598L35.48 7.56982C32.66 7.73982 24 9.97982 24 15.8798C24 17.1998 24.48 18.1998 25.23 19.0198C24.86 17.9698 24.91 16.8498 25.41 15.6598Z" fill="#1047C5"/>
<path d="M30.4299 20.3599C30.9799 19.9399 31.5099 19.5099 31.9799 19.0899C32.6099 18.5199 32.9299 17.8799 32.9199 17.1899C32.9199 17.0799 32.9099 16.9799 32.8899 16.8799C32.3899 18.2599 30.7999 19.3799 30.7299 19.4299C30.4499 19.6599 30.1499 19.8799 29.8599 20.1099C29.6299 20.0099 29.3999 19.9199 29.1599 19.8299C28.2199 19.4799 27.3799 19.1299 26.7299 18.7099H30.7699C30.9499 18.5599 31.1599 18.3799 31.3599 18.1599C31.3599 18.1599 26.0199 18.1599 26.0099 18.1599C26.0099 18.2599 26.1499 18.7099 26.1499 18.7099C26.5199 19.7599 27.4199 20.7299 28.8799 21.6399C29.6699 22.1099 30.3599 22.5699 30.8899 23.0699H28.2199C27.9999 23.2499 27.7899 23.4299 27.5799 23.6199H31.3799C31.6799 24.0199 31.8599 24.4599 31.8999 24.9699H26.3299C26.1999 25.1499 26.0999 25.3399 26.0299 25.5099H31.8799C31.7999 26.0199 31.5399 26.4699 31.1499 26.8599H26.1499C26.2599 27.0299 26.4099 27.2099 26.6099 27.4099H30.4799C28.4399 28.7899 24.7499 29.3199 23.0199 29.3499L21.9099 32.6999C24.3199 32.5399 34.4099 30.8699 34.4099 25.0699C34.4099 23.1799 33.0699 21.5999 30.4299 20.3599Z" fill="#1047C5"/>
<path d="M26.04 16.8102L32.32 16.8202C32.32 16.8302 32.32 16.8302 32.32 16.8302C32.33 16.8302 32.33 16.8302 32.33 16.8202C32.35 16.7702 32.37 16.7102 32.39 16.6602C32.4 16.6302 32.41 16.6002 32.42 16.5802C32.45 16.4902 32.47 16.4102 32.48 16.3302C32.48 16.3202 32.48 16.3202 32.48 16.3102C32.52 16.1002 32.51 15.9102 32.46 15.7302C31.87 14.7402 30.85 13.8502 30.07 13.1802C29.88 13.2602 29.69 13.3402 29.5 13.4202C29.55 13.4602 29.6 13.5002 29.65 13.5502C29.94 13.7902 30.26 14.0702 30.59 14.3702H27.83C27.58 14.5502 27.35 14.7302 27.14 14.9202H31.14C31.54 15.3502 31.9 15.8102 32.13 16.2802L26.21 16.2702C26.14 16.4502 26.08 16.6302 26.04 16.8102Z" fill="#1047C5"/>
<path d="M74.7701 21.0499C73.8601 21.0499 72.9901 20.8699 72.1601 20.5099C71.3301 20.1499 70.5901 19.6399 69.9501 18.9599C69.3101 18.2899 68.8001 17.4699 68.4301 16.4999C68.0501 15.5299 67.8601 14.4399 67.8601 13.2199C67.8601 11.9999 68.0501 10.8999 68.4201 9.90988C68.7901 8.91988 69.3001 8.05988 69.9601 7.34988C70.6101 6.63988 71.3801 6.08988 72.2701 5.70988C73.1601 5.31988 74.1001 5.12988 75.1101 5.12988C75.8601 5.12988 76.5401 5.21988 77.1501 5.40988C77.7501 5.58988 78.3301 5.85988 78.8801 6.18988L79.3201 5.45988H80.1801L80.2701 10.8899H79.3901C79.2801 10.3599 79.1101 9.78988 78.8801 9.16988C78.6501 8.54988 78.3801 8.02988 78.0801 7.59988C77.7401 7.10988 77.3301 6.72988 76.8601 6.44988C76.3901 6.17988 75.8401 6.03988 75.2401 6.03988C74.5501 6.03988 73.9001 6.18988 73.3001 6.49988C72.7101 6.80988 72.1901 7.25988 71.7601 7.85988C71.3401 8.43988 71.0201 9.17988 70.7801 10.0799C70.5401 10.9699 70.4201 11.9699 70.4201 13.0699C70.4201 14.0399 70.5501 14.9399 70.7901 15.7499C71.0401 16.5599 71.3901 17.2799 71.8501 17.8899C72.3001 18.4999 72.8401 18.9799 73.4701 19.3199C74.0901 19.6599 74.7901 19.8399 75.5601 19.8399C76.1401 19.8399 76.6801 19.7499 77.1601 19.5599C77.6501 19.3799 78.0701 19.1399 78.4301 18.8399C78.7801 18.5299 79.1001 18.1699 79.3701 17.7699C79.6401 17.3699 79.8601 16.9299 80.0401 16.4599L80.8401 16.8499C80.2301 18.3499 79.4101 19.4299 78.3901 20.0799C77.3801 20.7299 76.1701 21.0499 74.7701 21.0499Z" fill="#1047C5"/>
<path d="M91.52 17.1401L91.29 20.6901H81.29V20.0901C81.46 20.0701 81.68 20.0501 81.97 20.0101C82.25 19.9801 82.43 19.9401 82.52 19.9001C82.7 19.8101 82.83 19.7001 82.9 19.5701C82.97 19.4301 83 19.2601 83 19.0501L83.01 10.3901C83.01 10.2001 82.98 10.0401 82.91 9.89014C82.85 9.75014 82.72 9.63014 82.52 9.54014C82.37 9.47014 82.17 9.40014 81.91 9.35014C81.65 9.29014 81.44 9.25014 81.29 9.24014V8.64014L90.62 8.65014L90.61 11.5501H89.98C89.87 11.1201 89.62 10.6601 89.24 10.1801C88.87 9.69014 88.51 9.43014 88.17 9.38014C87.99 9.36014 87.78 9.34014 87.54 9.33014C87.3 9.32014 87.02 9.31014 86.71 9.31014H84.82L84.81 14.1001H86.17C86.61 14.1001 86.93 14.0601 87.13 13.9801C87.33 13.9001 87.5 13.7601 87.66 13.5701C87.78 13.4001 87.89 13.1801 87.98 12.9101C88.06 12.6401 88.12 12.3801 88.15 12.1301H88.79V16.8501H88.15C88.13 16.5801 88.07 16.3001 87.97 15.9901C87.87 15.6901 87.76 15.4701 87.66 15.3301C87.48 15.1101 87.28 14.9701 87.06 14.9001C86.84 14.8301 86.54 14.8001 86.17 14.8001H84.81V18.4101C84.81 18.7701 84.84 19.0601 84.89 19.2601C84.94 19.4701 85.04 19.6301 85.19 19.7401C85.33 19.8501 85.53 19.9201 85.79 19.9501C86.04 19.9801 86.4 19.9901 86.87 19.9901C87.06 19.9901 87.31 19.9901 87.61 19.9901C87.92 19.9901 88.17 19.9801 88.39 19.9601C88.6 19.9401 88.82 19.9001 89.05 19.8401C89.28 19.7801 89.44 19.7001 89.54 19.6001C89.8 19.3201 90.07 18.9101 90.36 18.3601C90.65 17.8101 90.83 17.4001 90.91 17.1401H91.52Z" fill="#1047C5"/>
<path d="M100.23 14.3899V10.3999C100.23 10.2199 100.19 10.0499 100.12 9.8999C100.05 9.7499 99.92 9.6399 99.74 9.5499C99.59 9.4799 99.4 9.4099 99.18 9.3499C98.96 9.2999 98.78 9.2599 98.62 9.2499V8.6499H103.62V9.2499C103.46 9.2599 103.27 9.2799 103.04 9.3299C102.81 9.3799 102.64 9.4199 102.52 9.4599C102.33 9.5299 102.2 9.6399 102.14 9.7999C102.07 9.9599 102.04 10.1299 102.04 10.3199L102.03 18.9999C102.03 19.1999 102.07 19.3599 102.13 19.4999C102.2 19.6399 102.33 19.7599 102.52 19.8599C102.61 19.9099 102.79 19.9599 103.03 20.0099C103.28 20.0599 103.47 20.0899 103.61 20.0999V20.6999H98.61V20.0899C98.75 20.0799 98.94 20.0599 99.2 20.0399C99.46 20.0199 99.64 19.9899 99.73 19.9399C99.9 19.8699 100.03 19.7699 100.11 19.6299C100.18 19.4899 100.23 19.3099 100.23 19.0899V15.1099C99.7 15.3799 99.16 15.6099 98.59 15.7999C98.03 15.9899 97.43 16.0899 96.79 16.0899C96.07 16.0899 95.48 15.9999 95.02 15.8399C94.56 15.6799 94.2 15.4399 93.95 15.1399C93.72 14.8599 93.55 14.5299 93.47 14.1499C93.39 13.7699 93.34 13.3499 93.34 12.8799L93.35 10.3899C93.35 10.2099 93.31 10.0499 93.23 9.8999C93.16 9.7499 93.03 9.6299 92.85 9.5499C92.7 9.4699 92.51 9.4099 92.3 9.3499C92.08 9.2899 91.89 9.2599 91.73 9.2499V8.6499H96.73V9.2499C96.57 9.2599 96.39 9.2799 96.16 9.3299C95.94 9.3699 95.77 9.4099 95.65 9.4499C95.46 9.5199 95.33 9.6399 95.27 9.7899C95.2 9.9499 95.17 10.1199 95.17 10.3099V12.4799C95.17 12.7699 95.18 13.0499 95.21 13.3299C95.23 13.6099 95.32 13.8799 95.47 14.1399C95.61 14.3899 95.84 14.5899 96.15 14.7599C96.46 14.9199 96.88 14.9999 97.42 14.9999C97.83 14.9999 98.3 14.9399 98.83 14.8299C99.36 14.7199 99.83 14.5799 100.23 14.3899Z" fill="#1047C5"/>
<path d="M114.99 17.1599L114.76 20.6999H104.76V20.0999C104.93 20.0899 105.15 20.0599 105.44 20.0299C105.72 19.9899 105.91 19.9499 105.99 19.9099C106.17 19.8299 106.3 19.7199 106.37 19.5799C106.44 19.4399 106.47 19.2699 106.47 19.0599L106.48 10.3999C106.48 10.2199 106.45 10.0499 106.38 9.8999C106.32 9.7599 106.19 9.6399 105.99 9.5499C105.84 9.4799 105.64 9.4099 105.38 9.3599C105.12 9.2999 104.92 9.2699 104.76 9.2599V8.6499L114.09 8.6599L114.08 11.5599H113.45C113.34 11.1299 113.09 10.6699 112.72 10.1899C112.34 9.7099 111.98 9.4399 111.64 9.3899C111.47 9.3699 111.25 9.3599 111.01 9.3399C110.77 9.3299 110.49 9.3199 110.18 9.3199H108.29L108.28 14.1099H109.64C110.08 14.1099 110.4 14.0699 110.6 13.9899C110.8 13.9099 110.97 13.7699 111.13 13.5799C111.25 13.4199 111.36 13.1999 111.45 12.9199C111.54 12.6499 111.59 12.3899 111.62 12.1499H112.26V16.8699H111.62C111.6 16.5899 111.54 16.3099 111.44 15.9999C111.34 15.6999 111.23 15.4799 111.13 15.3499C110.95 15.1199 110.75 14.9799 110.53 14.9099C110.31 14.8399 110.01 14.8099 109.64 14.8099H108.28V18.4199C108.28 18.7799 108.31 19.0699 108.36 19.2799C108.41 19.4799 108.51 19.6399 108.66 19.7499C108.8 19.8599 109 19.9299 109.26 19.9599C109.51 19.9899 109.87 20.0099 110.34 20.0099C110.53 20.0099 110.78 20.0099 111.08 20.0099C111.39 20.0099 111.65 19.9999 111.86 19.9699C112.07 19.9499 112.29 19.9099 112.52 19.8499C112.75 19.7899 112.92 19.7099 113.01 19.6099C113.27 19.3399 113.55 18.9299 113.83 18.3699C114.12 17.8199 114.3 17.4199 114.38 17.1499L114.99 17.1599Z" fill="#1047C5"/>
<path d="M128.24 20.7102H123.24V20.1102C123.37 20.1002 123.57 20.0802 123.83 20.0502C124.09 20.0302 124.26 20.0002 124.36 19.9602C124.53 19.8902 124.65 19.7802 124.73 19.6402C124.81 19.5102 124.85 19.3302 124.85 19.1002V14.8202L119.19 14.8102V19.0102C119.19 19.2102 119.22 19.3702 119.29 19.5102C119.35 19.6402 119.48 19.7602 119.67 19.8702C119.77 19.9202 119.94 19.9702 120.19 20.0202C120.43 20.0702 120.62 20.1002 120.77 20.1102V20.7102H115.77V20.1002C115.9 20.0902 116.1 20.0702 116.36 20.0502C116.61 20.0302 116.79 20.0002 116.89 19.9502C117.06 19.8802 117.18 19.7802 117.26 19.6402C117.34 19.5002 117.38 19.3202 117.38 19.1002V10.4102C117.39 10.2302 117.35 10.0602 117.27 9.91016C117.2 9.76016 117.07 9.64016 116.89 9.56016C116.74 9.49016 116.55 9.42016 116.34 9.36016C116.12 9.31016 115.93 9.27016 115.77 9.26016V8.66016H120.77V9.26016C120.61 9.27016 120.42 9.29016 120.19 9.34016C119.96 9.38016 119.79 9.43016 119.68 9.47016C119.48 9.53016 119.36 9.65016 119.29 9.81016C119.23 9.96016 119.19 10.1402 119.19 10.3202V14.0602H124.85L124.86 10.4102C124.86 10.2302 124.82 10.0602 124.74 9.91016C124.67 9.76016 124.55 9.65016 124.36 9.56016C124.21 9.49016 124.02 9.42016 123.81 9.37016C123.59 9.31016 123.4 9.28016 123.24 9.26016V8.66016L128.24 8.67016V9.27016C128.08 9.27016 127.89 9.30016 127.66 9.34016C127.43 9.39016 127.26 9.43016 127.15 9.47016C126.96 9.54016 126.83 9.65016 126.76 9.81016C126.7 9.97016 126.66 10.1402 126.66 10.3302V19.0102C126.66 19.2102 126.69 19.3802 126.76 19.5102C126.82 19.6502 126.95 19.7702 127.14 19.8702C127.24 19.9202 127.41 19.9702 127.66 20.0202C127.9 20.0702 128.1 20.1002 128.24 20.1102V20.7102Z" fill="#1047C5"/>
<path d="M137.18 18.6399C137.5 18.1199 137.73 17.5399 137.87 16.8899C138.02 16.2399 138.09 15.5099 138.09 14.6999C138.09 13.8799 138.01 13.1199 137.85 12.4299C137.69 11.7399 137.45 11.1499 137.14 10.6599C136.83 10.1799 136.44 9.80988 135.97 9.53988C135.5 9.26988 134.96 9.12988 134.36 9.12988C133.68 9.12988 133.1 9.28988 132.62 9.59988C132.15 9.90988 131.76 10.3299 131.46 10.8499C131.18 11.3499 130.97 11.9299 130.83 12.5999C130.69 13.2599 130.62 13.9699 130.62 14.6999C130.62 15.5199 130.69 16.2499 130.84 16.9099C130.99 17.5699 131.22 18.1499 131.53 18.6599C131.84 19.1599 132.22 19.5499 132.69 19.8299C133.15 20.1099 133.71 20.2499 134.35 20.2499C134.96 20.2499 135.5 20.1099 135.99 19.8299C136.48 19.5399 136.87 19.1499 137.18 18.6399ZM138.45 10.0999C138.98 10.6499 139.4 11.3199 139.7 12.0999C140 12.8899 140.14 13.7499 140.14 14.7099C140.14 15.6599 139.99 16.5299 139.69 17.3099C139.38 18.0899 138.95 18.7599 138.41 19.3099C137.88 19.8499 137.27 20.2699 136.58 20.5599C135.88 20.8599 135.14 20.9999 134.35 20.9999C133.51 20.9999 132.74 20.8399 132.03 20.5299C131.32 20.2199 130.71 19.7799 130.2 19.2199C129.69 18.6699 129.29 17.9999 129 17.2199C128.71 16.4299 128.56 15.5999 128.56 14.6999C128.56 13.7199 128.72 12.8499 129.02 12.0799C129.33 11.3099 129.75 10.6499 130.29 10.0899C130.82 9.53988 131.44 9.10988 132.14 8.81988C132.85 8.52988 133.59 8.37988 134.36 8.37988C135.16 8.37988 135.91 8.52988 136.61 8.82988C137.32 9.12988 137.93 9.54988 138.45 10.0999Z" fill="#1047C5"/>
<path d="M148.1 17.1399C148.1 16.4299 147.86 15.8399 147.38 15.3799C146.9 14.9199 146.22 14.6899 145.33 14.6899C144.97 14.6899 144.66 14.6999 144.41 14.6999C144.17 14.7099 143.98 14.7199 143.85 14.7199V18.9699C143.85 19.3299 144 19.5999 144.28 19.7799C144.57 19.9599 144.98 20.0499 145.49 20.0499C146.33 20.0499 146.98 19.7999 147.43 19.3099C147.87 18.8199 148.1 18.0999 148.1 17.1399ZM146.92 13.2899C147.13 13.0499 147.27 12.7799 147.36 12.4899C147.44 12.1999 147.48 11.8599 147.48 11.4599C147.48 10.7999 147.3 10.2799 146.94 9.89992C146.58 9.51992 146.01 9.32992 145.23 9.32992C145.05 9.32992 144.82 9.33992 144.55 9.34992C144.27 9.35992 144.04 9.35992 143.86 9.36992V13.9999H144.93C145.39 13.9999 145.79 13.9499 146.12 13.8299C146.45 13.7099 146.72 13.5299 146.92 13.2899ZM148.97 15.1099C149.33 15.3499 149.62 15.6599 149.85 16.0399C150.08 16.4299 150.2 16.8999 150.2 17.4399C150.19 18.0099 150.07 18.4899 149.83 18.9099C149.59 19.3199 149.27 19.6599 148.88 19.9199C148.5 20.1799 148.07 20.3799 147.59 20.5199C147.11 20.6499 146.62 20.7199 146.11 20.7199H140.41V20.1199C140.54 20.0999 140.74 20.0799 141 20.0399C141.26 20.0099 141.45 19.9599 141.56 19.9099C141.73 19.8299 141.86 19.7299 141.93 19.5899C142.01 19.4599 142.04 19.2899 142.04 19.0799L142.05 10.4199C142.05 10.2299 142.02 10.0599 141.95 9.90992C141.89 9.75992 141.76 9.64992 141.56 9.54992C141.39 9.46992 141.21 9.39992 141 9.35992C140.79 9.30992 140.61 9.27992 140.47 9.26992V8.66992H146.03C146.46 8.66992 146.87 8.71992 147.27 8.79992C147.66 8.88992 148.03 9.03992 148.39 9.24992C148.72 9.44992 149 9.71992 149.21 10.0599C149.43 10.3999 149.54 10.8099 149.54 11.2999C149.54 11.7199 149.46 12.0999 149.3 12.4299C149.15 12.7599 148.94 13.0499 148.66 13.2799C148.4 13.5099 148.1 13.6999 147.77 13.8599C147.43 14.0099 147.06 14.1299 146.67 14.2199V14.2899C147.02 14.3299 147.4 14.4199 147.83 14.5499C148.26 14.6899 148.64 14.8699 148.97 15.1099Z" fill="#1047C5"/>
<path d="M156.65 21.0099C155.93 21.0099 155.24 20.8699 154.58 20.5899C153.92 20.3099 153.34 19.8999 152.83 19.3699C152.33 18.8299 151.93 18.1799 151.63 17.4199C151.33 16.6499 151.18 15.7799 151.18 14.8199C151.18 13.8499 151.33 12.9799 151.62 12.1999C151.91 11.4099 152.32 10.7399 152.84 10.1699C153.36 9.60992 153.97 9.17992 154.67 8.86992C155.37 8.56992 156.12 8.41992 156.92 8.41992C157.51 8.41992 158.04 8.48992 158.53 8.63992C159.01 8.77992 159.46 8.98992 159.9 9.25992L160.25 8.67992H160.93L161 12.9799H160.31C160.21 12.5599 160.08 12.0999 159.9 11.6099C159.72 11.1199 159.51 10.7099 159.26 10.3699C158.99 9.97992 158.67 9.67992 158.3 9.46992C157.93 9.24992 157.5 9.13992 157.02 9.13992C156.47 9.13992 155.96 9.25992 155.49 9.49992C155.01 9.73992 154.61 10.0999 154.26 10.5799C153.93 11.0399 153.68 11.6199 153.49 12.3299C153.3 13.0399 153.21 13.8299 153.21 14.6999C153.21 15.4699 153.3 16.1799 153.5 16.8199C153.69 17.4599 153.97 18.0299 154.33 18.5199C154.7 18.9999 155.12 19.3699 155.62 19.6499C156.11 19.9199 156.66 20.0499 157.28 20.0599C157.73 20.0599 158.16 19.9799 158.54 19.8399C158.92 19.6999 159.26 19.4999 159.54 19.2699C159.82 19.0199 160.07 18.7399 160.29 18.4199C160.5 18.0999 160.68 17.7599 160.81 17.3799L161.45 17.6899C160.96 18.8799 160.32 19.7399 159.51 20.2499C158.71 20.7599 157.76 21.0099 156.65 21.0099Z" fill="#1047C5"/>
<path d="M173.49 20.7301H170.18C169.94 20.0801 169.72 19.4801 169.5 18.9401C169.28 18.3901 169.05 17.8701 168.82 17.3601C168.44 16.5001 168.05 15.9201 167.67 15.6201C167.28 15.3201 166.76 15.1701 166.1 15.1701H165.48V19.0301C165.48 19.2201 165.52 19.3901 165.58 19.5301C165.66 19.6801 165.78 19.8001 165.97 19.8901C166.06 19.9301 166.23 19.9801 166.48 20.0301C166.72 20.0901 166.93 20.1201 167.09 20.1301V20.7301H162.09V20.1301C162.22 20.1201 162.41 20.1001 162.66 20.0701C162.91 20.0501 163.09 20.0201 163.19 19.9801C163.35 19.9001 163.48 19.7901 163.55 19.6501C163.63 19.5001 163.67 19.3301 163.67 19.1201L163.68 10.4301C163.68 10.2401 163.64 10.0701 163.58 9.93008C163.51 9.79008 163.38 9.67008 163.19 9.58008C163.04 9.51008 162.86 9.44008 162.65 9.39008C162.44 9.33008 162.25 9.30008 162.1 9.28008V8.68008L167.1 8.69008V9.29008C166.94 9.29008 166.74 9.32008 166.5 9.36008C166.27 9.41008 166.09 9.45008 165.97 9.49008C165.78 9.56008 165.65 9.67008 165.59 9.83008C165.52 9.99008 165.48 10.1601 165.48 10.3501V14.4701L166.27 14.4801C166.48 14.4801 166.69 14.4301 166.89 14.3401C167.09 14.2501 167.28 14.1101 167.45 13.9401C167.69 13.6901 167.88 13.3901 168.03 13.0301C168.18 12.6701 168.34 12.2301 168.51 11.7301C168.66 11.2501 168.83 10.8201 169 10.4201C169.17 10.0101 169.42 9.64008 169.75 9.31008C169.97 9.08008 170.23 8.90008 170.53 8.77008C170.83 8.64008 171.15 8.58008 171.5 8.58008C171.75 8.58008 171.96 8.60008 172.14 8.67008C172.32 8.72008 172.48 8.81008 172.6 8.92008C172.71 9.01008 172.8 9.13008 172.85 9.26008C172.91 9.39008 172.94 9.53008 172.94 9.68008C172.94 9.81008 172.92 9.93008 172.88 10.0401C172.85 10.1601 172.79 10.2601 172.72 10.3401C172.65 10.4401 172.56 10.5101 172.46 10.5701C172.37 10.6201 172.23 10.6501 172.06 10.6501C171.87 10.6501 171.71 10.6201 171.57 10.5501C171.43 10.4901 171.31 10.4101 171.2 10.3001C171.1 10.1901 171.01 10.0701 170.93 9.92008C170.85 9.78008 170.77 9.63008 170.7 9.48008C170.54 9.59008 170.4 9.72008 170.29 9.88008C170.18 10.0401 170.08 10.2101 170 10.3901C169.91 10.5701 169.84 10.7701 169.78 10.9701C169.71 11.1701 169.63 11.4001 169.55 11.6501C169.48 11.8601 169.4 12.0901 169.31 12.3501C169.22 12.6101 169.11 12.8501 169 13.0601C168.87 13.3001 168.73 13.5401 168.56 13.7801C168.39 14.0201 168.19 14.2401 167.96 14.4501V14.5701C168.59 14.7401 169.11 15.0201 169.53 15.4101C169.94 15.7901 170.29 16.2801 170.57 16.8901C170.73 17.2401 170.91 17.6101 171.1 18.0101C171.29 18.4101 171.44 18.7501 171.57 19.0301C171.74 19.4101 171.91 19.6601 172.08 19.7901C172.24 19.9101 172.41 19.9901 172.57 20.0201C172.72 20.0401 172.88 20.0701 173.05 20.0901C173.22 20.1001 173.37 20.1201 173.49 20.1301V20.7301Z" fill="#1047C5"/>
<path d="M186.22 20.7399H181.23V20.1399C181.37 20.1299 181.57 20.1099 181.83 20.0799C182.1 20.0599 182.27 20.0299 182.37 19.9799C182.54 19.9199 182.67 19.8099 182.75 19.6699C182.82 19.5399 182.87 19.3599 182.87 19.1299V11.6199L177.04 18.8899V19.0799C177.04 19.2799 177.07 19.4399 177.14 19.5599C177.2 19.6799 177.33 19.7899 177.52 19.8999C177.62 19.9499 177.8 19.9999 178.06 20.0499C178.32 20.0999 178.52 20.1299 178.67 20.1399V20.7399L173.69 20.7299V20.1299C173.82 20.1199 174.02 20.0999 174.28 20.0799C174.54 20.0599 174.71 20.0299 174.81 19.9799C174.98 19.9099 175.1 19.8099 175.18 19.6699C175.26 19.5299 175.3 19.3499 175.3 19.1299L175.31 10.4399C175.31 10.2599 175.27 10.0899 175.19 9.93994C175.12 9.78994 174.99 9.66994 174.81 9.58994C174.66 9.51994 174.47 9.44994 174.26 9.38994C174.04 9.32994 173.85 9.29994 173.69 9.28994V8.68994H178.68V9.28994C178.52 9.29994 178.32 9.31994 178.08 9.36994C177.85 9.40994 177.68 9.45994 177.56 9.48994C177.37 9.55994 177.24 9.67994 177.18 9.83994C177.11 9.98994 177.08 10.1699 177.08 10.3499V17.6799L182.9 10.4199C182.9 10.2199 182.87 10.0499 182.79 9.91994C182.72 9.78994 182.59 9.67994 182.41 9.58994C182.27 9.51994 182.08 9.45994 181.83 9.39994C181.58 9.33994 181.38 9.30994 181.24 9.28994V8.68994L186.22 8.69994V9.29994C186.07 9.29994 185.87 9.32994 185.64 9.36994C185.41 9.41994 185.24 9.45994 185.13 9.49994C184.94 9.56994 184.81 9.67994 184.74 9.83994C184.68 9.99994 184.65 10.1699 184.65 10.3599L184.64 19.0399C184.64 19.2399 184.67 19.4099 184.74 19.5399C184.8 19.6799 184.93 19.7999 185.12 19.8999C185.22 19.9499 185.39 19.9999 185.64 20.0499C185.88 20.0999 186.08 20.1299 186.22 20.1399V20.7399Z" fill="#1047C5"/>
<path d="M195.65 6.73988C195.6 6.61988 195.54 6.45988 195.47 6.25988C195.4 6.05988 195.36 5.87988 195.36 5.71988C195.36 5.41988 195.45 5.20988 195.64 5.07988C195.83 4.94988 196.04 4.88988 196.26 4.88988C196.51 4.88988 196.71 4.97988 196.87 5.15988C197.02 5.33988 197.1 5.56988 197.1 5.85988C197.1 6.03988 197.04 6.25988 196.92 6.50988C196.81 6.75988 196.63 6.96988 196.4 7.14988C196.13 7.35988 195.8 7.52988 195.42 7.65988C195.04 7.77988 194.51 7.84988 193.84 7.84988C193.24 7.84988 192.73 7.77988 192.31 7.64988C191.88 7.50988 191.55 7.34988 191.3 7.14988C191.06 6.95988 190.88 6.74988 190.77 6.51988C190.66 6.27988 190.6 6.05988 190.6 5.84988C190.6 5.56988 190.68 5.33988 190.84 5.15988C190.99 4.96988 191.19 4.87988 191.44 4.87988C191.66 4.88988 191.87 4.94988 192.06 5.06988C192.25 5.19988 192.34 5.40988 192.34 5.71988C192.34 5.88988 192.31 6.06988 192.24 6.24988C192.17 6.42988 192.11 6.58988 192.05 6.72988C192.28 6.95988 192.57 7.10988 192.89 7.16988C193.22 7.23988 193.54 7.26988 193.84 7.26988C194.11 7.26988 194.43 7.23988 194.78 7.16988C195.13 7.08988 195.42 6.94988 195.65 6.73988ZM199.99 20.7499H195.01V20.1399C195.15 20.1299 195.35 20.1099 195.61 20.0899C195.87 20.0699 196.05 20.0399 196.15 19.9899C196.32 19.9199 196.44 19.8199 196.52 19.6799C196.6 19.5399 196.64 19.3599 196.64 19.1399L196.65 11.6299L190.82 18.8899V19.0899C190.82 19.2799 190.85 19.4499 190.92 19.5699C190.98 19.6899 191.11 19.7999 191.3 19.8999C191.4 19.9499 191.58 20.0099 191.84 20.0599C192.1 20.1099 192.3 20.1399 192.45 20.1399V20.7399H187.46V20.1399C187.6 20.1299 187.8 20.1099 188.05 20.0899C188.31 20.0699 188.49 20.0299 188.58 19.9899C188.75 19.9199 188.88 19.8199 188.96 19.6799C189.04 19.5399 189.08 19.3599 189.08 19.1399V10.4399C189.08 10.2599 189.04 10.0999 188.97 9.94988C188.9 9.79988 188.77 9.67988 188.59 9.58988C188.44 9.51988 188.25 9.45988 188.03 9.39988C187.82 9.33988 187.63 9.30988 187.47 9.29988V8.69988H192.45V9.29988C192.29 9.30988 192.1 9.32988 191.86 9.36988C191.63 9.41988 191.45 9.45988 191.34 9.49988C191.15 9.56988 191.02 9.67988 190.95 9.83988C190.89 9.99988 190.86 10.1699 190.86 10.3599L190.85 17.6899L196.68 10.4299C196.68 10.2299 196.64 10.0599 196.57 9.92988C196.5 9.78988 196.37 9.67988 196.19 9.59988C196.05 9.52988 195.85 9.46988 195.6 9.40988C195.35 9.34988 195.16 9.30988 195.02 9.29988V8.69988H200V9.29988C199.84 9.30988 199.65 9.32988 199.42 9.37988C199.19 9.42988 199.02 9.46988 198.9 9.50988C198.71 9.56988 198.58 9.68988 198.52 9.84988C198.45 9.99988 198.42 10.1799 198.42 10.3699V19.0499C198.42 19.2499 198.45 19.4099 198.51 19.5499C198.58 19.6899 198.71 19.7999 198.9 19.9099C199 19.9599 199.17 20.0099 199.41 20.0599C199.66 20.1099 199.85 20.1399 199.99 20.1499V20.7499Z" fill="#1047C5"/>
<path d="M70.94 26.2002C70.85 26.0302 70.71 25.8402 70.54 25.6402C70.36 25.4302 70.14 25.2602 69.89 25.1202C69.7 25.0202 69.47 24.9402 69.21 24.8702C68.96 24.8002 68.73 24.7602 68.53 24.7402V23.9702H75.01V24.7402C74.55 24.7602 74.12 24.8202 73.72 24.9002C73.31 24.9702 73.11 25.1102 73.11 25.2802C73.11 25.3702 73.14 25.4702 73.2 25.6002C73.26 25.7302 73.3 25.8202 73.33 25.8702C73.62 26.4302 74.07 27.3102 74.69 28.5202C75.31 29.7202 76.16 31.3602 77.25 33.4102C77.66 32.5202 78.11 31.5202 78.59 30.4002C79.08 29.2902 79.47 28.3902 79.75 27.6802C80.06 26.9202 80.24 26.4202 80.31 26.1702C80.37 25.9202 80.41 25.7402 80.41 25.6202C80.41 25.4802 80.34 25.3602 80.2 25.2502C80.06 25.1502 79.88 25.0602 79.67 24.9902C79.45 24.9202 79.23 24.8702 78.99 24.8302C78.76 24.8002 78.52 24.7702 78.27 24.7502V23.9802H84.01V24.7502C83.82 24.7602 83.59 24.8002 83.3 24.8802C83.02 24.9602 82.77 25.0502 82.57 25.1702C82.32 25.3102 82.13 25.4902 81.98 25.7102C81.83 25.9202 81.67 26.2102 81.49 26.5802C80.92 27.7102 80.23 29.2002 79.41 31.0402C78.59 32.8802 77.96 34.2502 77.52 35.1502C77.07 36.0402 76.65 36.7802 76.23 37.3702C75.82 37.9502 75.41 38.4102 74.99 38.7302C74.56 39.0702 74.17 39.3002 73.81 39.4002C73.45 39.5102 73.07 39.5702 72.65 39.5702C72.07 39.5702 71.58 39.4102 71.18 39.0902C70.79 38.7702 70.59 38.4002 70.59 37.9702C70.59 37.6102 70.7 37.3002 70.92 37.0302C71.14 36.7602 71.43 36.6302 71.77 36.6302C72.03 36.6302 72.25 36.6902 72.44 36.8002C72.63 36.9202 72.79 37.0602 72.91 37.2202C73.03 37.3702 73.16 37.5502 73.28 37.7702C73.4 37.9902 73.5 38.1702 73.58 38.2902C74.13 38.1402 74.58 37.8402 74.94 37.4102C75.3 36.9702 75.66 36.4502 76 35.8402C75.09 34.0702 74.09 32.1602 73.03 30.1302C71.96 28.1002 71.27 26.7902 70.94 26.2002Z" fill="#1047C5"/>
<path d="M94.9101 39.3599H89.8601V38.7499C90.0001 38.7399 90.2001 38.7199 90.4601 38.6999C90.7201 38.6799 90.9001 38.6399 90.9901 38.5999C91.1701 38.5299 91.2901 38.4199 91.3701 38.2799C91.4501 38.1399 91.4901 37.9599 91.4901 37.7399V33.4099L85.7701 33.3999V37.6399C85.7701 37.8399 85.8001 38.0099 85.8701 38.1499C85.9401 38.2799 86.0701 38.3999 86.2601 38.5099C86.3601 38.5599 86.5301 38.6099 86.7801 38.6599C87.0301 38.7099 87.2201 38.7399 87.3601 38.7499V39.3599L82.3101 39.3499V38.7499C82.4501 38.7399 82.6501 38.7199 82.9101 38.6899C83.1701 38.6699 83.3501 38.6399 83.4501 38.5899C83.6201 38.5199 83.7401 38.4199 83.8201 38.2799C83.9001 38.1399 83.9501 37.9599 83.9501 37.7299V28.9499C83.9501 28.7699 83.9101 28.5999 83.8401 28.4499C83.7601 28.2999 83.6301 28.1799 83.4501 28.0999C83.3001 28.0199 83.1101 27.9599 82.8901 27.8999C82.6701 27.8399 82.4801 27.8099 82.3201 27.7999V27.1899H87.3701V27.7999C87.2101 27.7999 87.0101 27.8299 86.7801 27.8699C86.5501 27.9199 86.3801 27.9599 86.2601 27.9999C86.0701 28.0699 85.9401 28.1899 85.8701 28.3499C85.8101 28.5099 85.7801 28.6799 85.7801 28.8699L85.7701 32.6399L91.4901 32.6499V28.9599C91.4901 28.7799 91.4601 28.6099 91.3801 28.4599C91.3101 28.2999 91.1801 28.1899 91.0001 28.0999C90.8401 28.0299 90.6501 27.9599 90.4401 27.8999C90.2201 27.8399 90.0301 27.8099 89.8701 27.7999V27.1899H94.9201V27.7999C94.7601 27.8099 94.5601 27.8299 94.3301 27.8799C94.1001 27.9299 93.9201 27.9699 93.8101 28.0099C93.6201 28.0799 93.4901 28.1899 93.4201 28.3499C93.3501 28.5099 93.3201 28.6799 93.3201 28.8699V37.6499C93.3201 37.8499 93.3501 38.0099 93.4101 38.1499C93.4801 38.2899 93.6101 38.4099 93.8101 38.5099C93.9001 38.5599 94.0801 38.6199 94.3201 38.6699C94.5701 38.7199 94.7701 38.7499 94.9101 38.7499V39.3599Z" fill="#1047C5"/>
<path d="M108.84 39.3702H103.81V38.7602C103.95 38.7502 104.15 38.7302 104.42 38.7102C104.68 38.6802 104.86 38.6502 104.96 38.6002C105.13 38.5302 105.26 38.4302 105.34 38.2902C105.42 38.1502 105.46 37.9702 105.46 37.7402V30.1602L99.5699 37.5002V37.6902C99.5699 37.8902 99.6099 38.0502 99.6699 38.1802C99.7399 38.3002 99.8699 38.4102 100.06 38.5102C100.16 38.5702 100.34 38.6202 100.6 38.6702C100.87 38.7202 101.07 38.7502 101.22 38.7602V39.3602H96.1899V38.7502C96.3199 38.7402 96.5199 38.7202 96.7799 38.7002C97.0399 38.6802 97.2199 38.6502 97.3199 38.6002C97.4899 38.5302 97.6199 38.4302 97.6999 38.2902C97.7699 38.1502 97.8199 37.9702 97.8199 37.7402V28.9602C97.8199 28.7802 97.7799 28.6102 97.7099 28.4602C97.6299 28.3102 97.5099 28.1902 97.3199 28.1002C97.1699 28.0302 96.9799 27.9602 96.7599 27.9102C96.5399 27.8502 96.3499 27.8102 96.1899 27.8002V27.2002H101.23V27.8102C101.07 27.8102 100.87 27.8402 100.63 27.8802C100.39 27.9302 100.22 27.9702 100.1 28.0102C99.9099 28.0802 99.7799 28.1902 99.7099 28.3502C99.6499 28.5102 99.6099 28.6902 99.6099 28.8802V36.2802L105.5 28.9502C105.5 28.7402 105.46 28.5702 105.38 28.4402C105.31 28.3002 105.18 28.1902 105 28.1102C104.85 28.0402 104.66 27.9802 104.41 27.9102C104.15 27.8502 103.96 27.8202 103.82 27.8102V27.2002H108.85V27.8102C108.69 27.8102 108.49 27.8402 108.26 27.8802C108.03 27.9302 107.86 27.9702 107.74 28.0102C107.55 28.0802 107.42 28.2002 107.35 28.3602C107.29 28.5202 107.25 28.6902 107.25 28.8802V37.6502C107.25 37.8502 107.28 38.0202 107.35 38.1602C107.41 38.2902 107.54 38.4202 107.74 38.5202C107.84 38.5702 108.01 38.6202 108.26 38.6702C108.5 38.7202 108.7 38.7502 108.84 38.7602V39.3702Z" fill="#1047C5"/>
<path d="M117.87 35.7502C117.87 35.0302 117.62 34.4402 117.14 33.9802C116.66 33.5202 115.97 33.2802 115.07 33.2802C114.71 33.2802 114.4 33.2902 114.14 33.3002C113.89 33.3002 113.71 33.3102 113.58 33.3202V37.6002C113.58 37.9602 113.72 38.2402 114.01 38.4202C114.3 38.6002 114.71 38.6902 115.23 38.6902C116.08 38.6902 116.74 38.4502 117.19 37.9502C117.64 37.4502 117.87 36.7202 117.87 35.7502ZM116.68 31.8702C116.89 31.6202 117.03 31.3502 117.12 31.0602C117.2 30.7702 117.24 30.4202 117.24 30.0202C117.24 29.3502 117.06 28.8202 116.7 28.4402C116.33 28.0602 115.76 27.8702 114.97 27.8702C114.79 27.8702 114.56 27.8802 114.28 27.8902C114 27.8902 113.77 27.9002 113.58 27.9102V32.5902H114.67C115.13 32.5902 115.53 32.5302 115.87 32.4102C116.2 32.2902 116.47 32.1102 116.68 31.8702ZM118.75 33.7002C119.1 33.9502 119.4 34.2602 119.63 34.6502C119.87 35.0402 119.98 35.5102 119.98 36.0602C119.98 36.6302 119.86 37.1202 119.61 37.5402C119.37 37.9602 119.05 38.3002 118.65 38.5702C118.27 38.8302 117.84 39.0302 117.35 39.1702C116.87 39.3002 116.37 39.3702 115.86 39.3702H110.09V38.7602C110.23 38.7502 110.43 38.7202 110.69 38.6902C110.96 38.6502 111.15 38.6102 111.26 38.5502C111.44 38.4802 111.56 38.3702 111.64 38.2302C111.71 38.1002 111.75 37.9302 111.75 37.7102L111.76 28.9702C111.76 28.7702 111.72 28.6002 111.66 28.4602C111.59 28.3002 111.46 28.1902 111.27 28.0902C111.09 28.0102 110.9 27.9402 110.69 27.9002C110.48 27.8502 110.3 27.8202 110.16 27.8102V27.2002L115.78 27.2102C116.21 27.2102 116.63 27.2502 117.02 27.3302C117.42 27.4202 117.8 27.5702 118.16 27.7902C118.5 27.9902 118.77 28.2602 118.99 28.6002C119.21 28.9502 119.32 29.3602 119.32 29.8602C119.32 30.2902 119.24 30.6702 119.08 31.0002C118.93 31.3402 118.71 31.6202 118.43 31.8602C118.17 32.0902 117.87 32.2802 117.53 32.4402C117.19 32.6002 116.82 32.7202 116.43 32.8002V32.8802C116.77 32.9202 117.16 33.0102 117.6 33.1402C118.03 33.2802 118.41 33.4702 118.75 33.7002Z" fill="#1047C5"/>
<path d="M131.4 35.79L131.16 39.38L121.06 39.37V38.77C121.23 38.76 121.46 38.73 121.75 38.69C122.03 38.66 122.22 38.62 122.3 38.58C122.49 38.49 122.61 38.38 122.68 38.24C122.76 38.11 122.79 37.93 122.79 37.72L122.8 28.97C122.8 28.79 122.77 28.62 122.7 28.47C122.64 28.33 122.51 28.21 122.31 28.12C122.15 28.04 121.95 27.98 121.69 27.92C121.43 27.86 121.22 27.83 121.07 27.82V27.21H130.48V30.15L129.84 30.14C129.72 29.71 129.48 29.25 129.1 28.76C128.72 28.27 128.36 28 128.01 27.96C127.83 27.93 127.62 27.92 127.38 27.91C127.13 27.89 126.85 27.89 126.54 27.89L124.63 27.88L124.62 32.72H126C126.43 32.72 126.76 32.68 126.96 32.6C127.16 32.52 127.34 32.38 127.5 32.18C127.62 32.02 127.73 31.8 127.82 31.52C127.91 31.24 127.96 30.98 127.99 30.73L128.64 30.74L128.63 35.5H127.99C127.97 35.23 127.91 34.94 127.81 34.63C127.71 34.33 127.6 34.1 127.5 33.97C127.32 33.74 127.11 33.6 126.89 33.53C126.66 33.46 126.36 33.43 125.99 33.43L124.62 33.42V37.07C124.62 37.44 124.65 37.73 124.7 37.94C124.75 38.15 124.85 38.31 125 38.42C125.15 38.52 125.35 38.6 125.61 38.63C125.86 38.66 126.23 38.67 126.7 38.67C126.89 38.67 127.14 38.67 127.45 38.67C127.76 38.67 128.02 38.66 128.23 38.64C128.45 38.62 128.67 38.58 128.9 38.52C129.13 38.46 129.3 38.38 129.4 38.27C129.66 38 129.94 37.58 130.23 37.03C130.51 36.47 130.7 36.06 130.78 35.79H131.4Z" fill="#1047C5"/>
<path d="M139.27 32.29C139.47 32.02 139.6 31.73 139.66 31.44C139.72 31.14 139.76 30.88 139.76 30.65C139.76 30.32 139.72 29.99 139.64 29.65C139.56 29.31 139.43 29.02 139.24 28.77C139.04 28.5 138.78 28.29 138.45 28.14C138.13 27.99 137.72 27.92 137.24 27.92H136.03L136.02 33.29H136.9C137.52 33.29 138.02 33.2 138.41 33.01C138.79 32.82 139.08 32.58 139.27 32.29ZM141.88 30.22C141.88 30.85 141.76 31.41 141.51 31.9C141.26 32.39 140.91 32.8 140.47 33.12C140.04 33.44 139.56 33.67 139.04 33.82C138.52 33.97 137.97 34.04 137.39 34.04H136.02V37.73C136.02 37.93 136.06 38.1 136.12 38.25C136.19 38.4 136.32 38.52 136.53 38.6C136.63 38.64 136.81 38.68 137.07 38.71C137.33 38.75 137.57 38.77 137.79 38.78V39.38H132.57V38.77C132.7 38.76 132.9 38.74 133.16 38.71C133.42 38.68 133.6 38.65 133.71 38.6C133.88 38.53 134 38.42 134.08 38.27C134.16 38.13 134.2 37.95 134.2 37.73V28.95C134.2 28.75 134.17 28.56 134.11 28.4C134.06 28.25 133.92 28.12 133.71 28.04C133.5 27.97 133.28 27.92 133.06 27.89C132.85 27.86 132.67 27.83 132.51 27.82V27.21L138.07 27.22C139.2 27.22 140.12 27.49 140.82 28.04C141.53 28.58 141.88 29.31 141.88 30.22Z" fill="#1047C5"/>
<path d="M148.19 39.68C147.47 39.68 146.77 39.54 146.11 39.25C145.44 38.96 144.85 38.55 144.34 38.01C143.83 37.48 143.42 36.82 143.12 36.04C142.82 35.27 142.67 34.39 142.67 33.42C142.67 32.45 142.82 31.57 143.12 30.77C143.41 29.98 143.83 29.3 144.35 28.73C144.87 28.16 145.49 27.72 146.19 27.42C146.9 27.11 147.66 26.96 148.47 26.96C149.06 26.96 149.61 27.03 150.09 27.18C150.58 27.33 151.04 27.54 151.48 27.81L151.83 27.22H152.52L152.59 31.56H151.89C151.8 31.14 151.66 30.68 151.48 30.18C151.3 29.69 151.08 29.27 150.84 28.93C150.56 28.54 150.24 28.23 149.86 28.02C149.48 27.79 149.05 27.68 148.57 27.68C148.01 27.68 147.5 27.81 147.02 28.05C146.54 28.3 146.13 28.66 145.78 29.14C145.45 29.6 145.19 30.19 145 30.91C144.81 31.62 144.72 32.42 144.72 33.3C144.72 34.08 144.82 34.79 145.01 35.44C145.21 36.09 145.49 36.66 145.86 37.16C146.22 37.64 146.65 38.02 147.15 38.3C147.65 38.57 148.21 38.71 148.83 38.71C149.29 38.71 149.72 38.64 150.1 38.49C150.49 38.35 150.83 38.15 151.11 37.91C151.4 37.66 151.65 37.38 151.87 37.06C152.09 36.74 152.26 36.39 152.4 36.01L153.04 36.32C152.55 37.53 151.9 38.39 151.09 38.91C150.28 39.42 149.31 39.68 148.19 39.68Z" fill="#1047C5"/>
<path d="M166.33 39.4002L161.3 39.3902V38.7902C161.44 38.7802 161.64 38.7602 161.9 38.7302C162.17 38.7102 162.35 38.6802 162.45 38.6302C162.62 38.5602 162.74 38.4602 162.82 38.3202C162.9 38.1802 162.95 38.0002 162.95 37.7702V30.1902L157.06 37.5202V37.7202C157.06 37.9202 157.09 38.0802 157.16 38.2102C157.23 38.3302 157.35 38.4402 157.55 38.5402C157.65 38.5902 157.83 38.6502 158.09 38.7002C158.35 38.7502 158.56 38.7802 158.71 38.7902V39.3902H153.67V38.7802C153.81 38.7702 154.01 38.7502 154.27 38.7302C154.53 38.7102 154.71 38.6702 154.81 38.6302C154.98 38.5602 155.1 38.4602 155.18 38.3202C155.26 38.1802 155.3 37.9902 155.31 37.7702V28.9902C155.31 28.8102 155.27 28.6402 155.2 28.4902C155.12 28.3402 154.99 28.2202 154.81 28.1302C154.66 28.0602 154.47 27.9902 154.25 27.9402C154.03 27.8802 153.84 27.8402 153.68 27.8302V27.2202L158.71 27.2302V27.8302C158.55 27.8402 158.35 27.8702 158.12 27.9102C157.88 27.9602 157.7 28.0002 157.59 28.0402C157.4 28.1102 157.26 28.2202 157.2 28.3802C157.13 28.5402 157.1 28.7202 157.1 28.9102V36.3102L162.98 28.9802C162.98 28.7702 162.95 28.6002 162.87 28.4702C162.8 28.3302 162.67 28.2202 162.49 28.1402C162.34 28.0702 162.15 28.0002 161.89 27.9402C161.64 27.8802 161.45 27.8502 161.3 27.8402V27.2302H166.34V27.8402C166.18 27.8402 165.98 27.8702 165.75 27.9102C165.52 27.9602 165.35 28.0002 165.23 28.0402C165.04 28.1102 164.91 28.2302 164.84 28.3902C164.77 28.5502 164.74 28.7202 164.74 28.9102V37.6802C164.74 37.8802 164.77 38.0502 164.84 38.1902C164.9 38.3202 165.03 38.4402 165.22 38.5502C165.32 38.6002 165.5 38.6502 165.74 38.7002C165.99 38.7502 166.19 38.7802 166.33 38.7902V39.4002Z" fill="#1047C5"/>
<path d="M177.75 30.54H177.16C177.11 30.33 177.01 30.09 176.88 29.8C176.75 29.52 176.59 29.25 176.43 29C176.26 28.74 176.07 28.51 175.87 28.31C175.66 28.11 175.47 28 175.28 27.97C175.1 27.95 174.88 27.93 174.61 27.92C174.34 27.91 174.09 27.9 173.86 27.9H173.36V37.63C173.36 37.82 173.4 37.99 173.48 38.15C173.56 38.31 173.7 38.43 173.9 38.52C174 38.56 174.21 38.61 174.55 38.68C174.87 38.75 175.13 38.79 175.31 38.79V39.4H169.57V38.79C169.73 38.78 169.97 38.76 170.3 38.72C170.63 38.69 170.86 38.65 170.98 38.59C171.17 38.52 171.31 38.41 171.4 38.27C171.49 38.13 171.53 37.95 171.53 37.71V27.9H171.04C170.86 27.9 170.64 27.91 170.38 27.91C170.11 27.92 169.86 27.94 169.62 27.97C169.43 27.99 169.24 28.1 169.04 28.31C168.83 28.51 168.65 28.74 168.47 29C168.3 29.25 168.15 29.53 168.02 29.82C167.89 30.11 167.8 30.34 167.74 30.53H167.14L167.15 27.23L177.75 27.24V30.54Z" fill="#1047C5"/>
<path d="M188.76 35.8202L188.52 39.4102L178.42 39.4002V38.8002C178.6 38.7802 178.82 38.7602 179.11 38.7202C179.39 38.6802 179.58 38.6502 179.66 38.6102C179.85 38.5202 179.98 38.4102 180.05 38.2702C180.12 38.1402 180.16 37.9602 180.16 37.7502V29.0002C180.16 28.8102 180.13 28.6502 180.07 28.5002C180 28.3602 179.87 28.2402 179.67 28.1402C179.52 28.0702 179.31 28.0002 179.05 27.9502C178.79 27.8902 178.58 27.8602 178.43 27.8402V27.2402H187.84V30.1702H187.2C187.09 29.7402 186.84 29.2802 186.46 28.7902C186.08 28.3002 185.72 28.0302 185.37 27.9902C185.2 27.9602 184.98 27.9502 184.74 27.9302C184.49 27.9202 184.21 27.9102 183.9 27.9102H181.99L181.98 32.7502H183.36C183.8 32.7502 184.12 32.7102 184.32 32.6302C184.52 32.5402 184.7 32.4102 184.86 32.2102C184.98 32.0502 185.09 31.8302 185.18 31.5502C185.27 31.2702 185.33 31.0102 185.35 30.7602H186V35.5302H185.35C185.33 35.2602 185.27 34.9702 185.17 34.6602C185.07 34.3502 184.96 34.1302 184.86 34.0002C184.68 33.7702 184.48 33.6302 184.25 33.5602C184.03 33.4902 183.73 33.4502 183.36 33.4502H181.98V37.1002C181.98 37.4702 182.01 37.7602 182.06 37.9702C182.11 38.1802 182.21 38.3402 182.36 38.4402C182.51 38.5502 182.71 38.6202 182.97 38.6602C183.22 38.6902 183.59 38.7002 184.06 38.7002C184.25 38.7002 184.5 38.7002 184.81 38.7002C185.12 38.7002 185.38 38.6902 185.59 38.6702C185.81 38.6502 186.03 38.6102 186.26 38.5402C186.5 38.4902 186.66 38.4102 186.76 38.3002C187.02 38.0302 187.3 37.6102 187.59 37.0602C187.88 36.5002 188.06 36.0902 188.14 35.8202H188.76Z" fill="#1047C5"/>
<path d="M199.58 30.5502H198.99C198.94 30.3402 198.85 30.1002 198.71 29.8102C198.58 29.5302 198.43 29.2602 198.26 29.0102C198.09 28.7502 197.9 28.5202 197.7 28.3202C197.49 28.1202 197.3 28.0102 197.11 27.9802C196.93 27.9602 196.71 27.9402 196.44 27.9302C196.17 27.9202 195.92 27.9102 195.69 27.9102H195.19V37.6402C195.19 37.8302 195.23 38.0102 195.31 38.1702C195.39 38.3202 195.53 38.4402 195.73 38.5302C195.83 38.5702 196.05 38.6202 196.38 38.6902C196.7 38.7602 196.96 38.8002 197.14 38.8102V39.4102H191.4V38.8002C191.56 38.7902 191.8 38.7702 192.13 38.7302C192.46 38.7002 192.69 38.6602 192.81 38.6002C193 38.5302 193.14 38.4202 193.23 38.2802C193.32 38.1402 193.36 37.9602 193.36 37.7202L193.37 27.9102H192.87C192.69 27.9102 192.47 27.9202 192.21 27.9202C191.95 27.9302 191.69 27.9502 191.46 27.9802C191.27 28.0002 191.07 28.1102 190.87 28.3202C190.67 28.5202 190.48 28.7502 190.3 29.0102C190.13 29.2602 189.98 29.5402 189.85 29.8302C189.72 30.1202 189.63 30.3502 189.58 30.5402H188.98V27.2402L199.58 27.2502V30.5502Z" fill="#1047C5"/>
</svg>
