<svg width="20" height="20" viewBox="0 0 20 20" fill="none" xmlns="http://www.w3.org/2000/svg">
<path fill-rule="evenodd" clip-rule="evenodd" d="M11 9.90047V17.0005H9V9.90047C6.71776 9.4372 5 7.41945 5 5.00049C5 2.23906 7.23858 0.000488281 10 0.000488281C12.7614 0.000488281 15 2.23906 15 5.00049C15 7.41945 13.2822 9.4372 11 9.90047ZM7 12.1578V14.1849C4.06718 14.551 2 15.3872 2 16.0005C2 16.8074 5.57914 18.0005 10 18.0005C14.4209 18.0005 18 16.8074 18 16.0005C18 15.3872 15.9328 14.551 13 14.1849V12.1578C17.0559 12.6022 20 13.9683 20 16.0005C20 18.5072 15.5203 20.0005 10 20.0005C4.47973 20.0005 0 18.5072 0 16.0005C0 13.9683 2.94412 12.6022 7 12.1578ZM13 5.00049C13 6.65734 11.6569 8.00049 10 8.00049C8.34315 8.00049 7 6.65734 7 5.00049C7 3.34363 8.34315 2.00049 10 2.00049C11.6569 2.00049 13 3.34363 13 5.00049Z" fill="#5C94FF"/>
</svg>
