<svg width="21" height="20" viewBox="0 0 21 20" fill="none" xmlns="http://www.w3.org/2000/svg">
<path fill-rule="evenodd" clip-rule="evenodd" d="M18.6772 0.000244141H2.67719C1.57262 0.000244141 0.677185 0.895675 0.677185 2.00024V18.0002C0.677185 19.1048 1.57262 20.0002 2.67719 20.0002H18.6772C19.7818 20.0002 20.6772 19.1048 20.6772 18.0002V2.00024C20.6772 0.895675 19.7818 0.000244141 18.6772 0.000244141ZM2.67719 18.0002V14.0002H6.67719V18.0002H2.67719ZM8.67719 18.0002H12.6772V14.0002H8.67719V18.0002ZM8.67719 12.0002H12.6772V8.00024H8.67719V12.0002ZM8.67719 6.00024H12.6772V2.00024H8.67719V6.00024ZM6.67719 2.00024V6.00024H2.67719V2.00024H6.67719ZM6.67719 8.00024V12.0002H2.67719V8.00024H6.67719ZM14.6772 18.0002V14.0002H18.6772V18.0002H14.6772ZM14.6772 8.00024V12.0002H18.6772V8.00024H14.6772ZM18.6772 6.00024H14.6772V2.00024H18.6772V6.00024Z" fill="#1047C5"/>
</svg>
