<svg width="22" height="14" viewBox="0 0 22 14" fill="none" xmlns="http://www.w3.org/2000/svg">
<path d="M18.2002 7.30792C19.2352 5.98792 21.5752 2.80792 21.0502 1.53292C20.9682 1.33804 20.8289 1.17271 20.6507 1.05885C20.4726 0.94499 20.264 0.887993 20.0527 0.895419H17.1952C17.069 0.896431 16.9452 0.929265 16.835 0.990882C16.7249 1.0525 16.6321 1.14091 16.5652 1.24792C15.6919 2.66538 14.7221 4.02108 13.6627 5.30542V2.35792C13.6668 2.16474 13.6318 1.97273 13.5597 1.79344C13.4877 1.61415 13.3801 1.4513 13.2435 1.31467C13.1069 1.17804 12.944 1.07046 12.7647 0.998412C12.5854 0.926363 12.3934 0.891329 12.2002 0.895419H8.63023C8.53153 0.894848 8.43368 0.913767 8.34231 0.95109C8.25093 0.988414 8.16781 1.04341 8.09773 1.11292C7.93288 1.2525 7.80988 1.43499 7.74237 1.64017C7.67486 1.84536 7.66547 2.06522 7.71523 2.27542C7.80761 2.54807 7.97066 2.79134 8.18773 2.98042C8.31481 3.07348 8.41784 3.19552 8.48828 3.3364C8.55872 3.47727 8.59453 3.63292 8.59273 3.79042V6.47542C8.09023 6.03292 7.13023 4.80292 5.75773 1.36792C5.70216 1.22837 5.60596 1.10872 5.4816 1.02448C5.35724 0.940235 5.21044 0.895273 5.06023 0.895419H1.49023C1.29132 0.895419 1.10056 0.974436 0.959904 1.11509C0.819252 1.25574 0.740234 1.44651 0.740234 1.64542C0.740234 1.84433 0.819252 2.0351 0.959904 2.17575C1.10056 2.3164 1.29132 2.39542 1.49023 2.39542H4.55773C6.05773 6.03292 7.40773 7.93042 8.68273 8.19292C8.89149 8.24311 9.10938 8.24132 9.31729 8.18771C9.5252 8.1341 9.71678 8.0303 9.87523 7.88542C10.0138 7.74572 10.0919 7.55717 10.0927 7.36042V3.79042C10.1005 3.29203 9.95088 2.80389 9.66523 2.39542H12.1627V6.64042C12.1622 6.73912 12.1811 6.83697 12.2184 6.92835C12.2557 7.01973 12.3107 7.10284 12.3802 7.17292C12.4852 7.27776 12.6128 7.35725 12.7531 7.40534C12.8935 7.45343 13.043 7.46885 13.1902 7.45042C14.0602 7.34542 15.5527 5.65042 17.6152 2.39542H19.5427C18.7735 3.98672 17.8085 5.47574 16.6702 6.82792C16.5305 6.96844 16.4521 7.15853 16.4521 7.35667C16.4521 7.55481 16.5305 7.7449 16.6702 7.88542C18.9202 10.0979 19.5127 11.1704 19.6702 11.6354H17.2477C16.8834 11.3372 16.5606 10.9916 16.2877 10.6079C15.8469 10.0434 15.3736 9.50499 14.8702 8.99542C14.5627 8.68792 13.7527 7.87042 12.9127 8.24542C12.6729 8.36262 12.4734 8.54866 12.3398 8.77977C12.2062 9.01089 12.1446 9.27659 12.1627 9.54292V11.5004C11.7077 11.6025 11.241 11.6428 10.7752 11.6204C7.21273 11.6204 4.46023 6.68542 3.13273 3.73792C3.04373 3.56903 2.89367 3.44043 2.71314 3.37834C2.53261 3.31626 2.3352 3.32535 2.16114 3.40377C1.98708 3.48219 1.84948 3.62404 1.77638 3.8004C1.70328 3.97676 1.70019 4.17436 1.76773 4.35292C3.26773 7.63042 6.37273 13.1204 10.7677 13.1204C11.6302 13.1204 13.6552 13.1204 13.6552 11.6579V9.88792L13.8052 10.0304C14.2698 10.5061 14.708 11.0068 15.1177 11.5304C15.8302 12.4079 16.3927 13.1054 17.1877 13.1054H20.0452C20.2836 13.1039 20.5162 13.0319 20.7138 12.8985C20.9113 12.765 21.0649 12.576 21.1552 12.3554C21.4552 11.6729 21.3127 10.5104 18.2002 7.30792Z" fill="#1047C5"/>
</svg>
