<svg width="22" height="16" viewBox="0 0 22 16" fill="none" xmlns="http://www.w3.org/2000/svg">
<path fill-rule="evenodd" clip-rule="evenodd" d="M21.0247 14.1287C21.7081 12.9576 22 11.0694 22 7.99769C22 4.93827 21.7108 3.06097 21.0202 1.85852C20.3281 0.609851 19.5073 0.21352 17.8783 0.118389C16.7662 0.0430105 14.0023 0.000488281 11.0027 0.000488281C7.99661 0.000488281 5.23145 0.0429947 4.111 0.11898C2.49112 0.213747 1.67011 0.610953 0.971932 1.86309C0.291384 3.06139 0 4.94786 0 8.00889C0 11.0525 0.292795 12.9485 0.977912 14.1429C1.66701 15.3789 2.47493 15.7713 4.1086 15.886C5.28276 15.9547 8.20442 16.0005 11.0027 16.0005C13.7946 16.0005 16.7149 15.9547 17.8783 15.8868C19.527 15.7713 20.3348 15.3782 21.0247 14.1287ZM17.7524 2.1144C18.7714 2.17395 18.9603 2.26554 19.2833 2.85012C19.7535 3.66448 20 5.2582 20 8.00889C20 10.7388 19.7522 12.3413 19.2855 13.1415C18.9614 13.7279 18.7738 13.8192 17.7501 13.8909C16.6489 13.9552 13.757 14.0005 11.0027 14.0005C8.24213 14.0005 5.34874 13.9552 4.23703 13.8902C3.22601 13.8191 3.03565 13.7267 2.71873 13.1583C2.24886 12.339 2 10.7275 2 7.99769C2 5.26948 2.24754 3.66688 2.7149 2.84391C3.03675 2.26676 3.22844 2.17401 4.23709 2.11498C5.30508 2.04259 8.04424 2.00049 11.0027 2.00049C13.9547 2.00049 16.6926 2.04261 17.7524 2.1144ZM9 5.00049L14 8.00049L9 11.0005V5.00049Z" fill="#1047C5"/>
</svg>
