<svg width="22" height="14" viewBox="0 0 22 14" fill="none" xmlns="http://www.w3.org/2000/svg">
<path d="M11.1207 13.4999C14.014 13.4999 12.9824 11.6682 13.2057 11.1416C13.2024 10.7482 13.199 10.3699 13.2124 10.1399C13.3957 10.1916 13.8282 10.4107 14.7215 11.2791C16.1007 12.6707 16.4532 13.4999 17.5673 13.4999H19.6181C20.2681 13.4999 20.6065 13.2307 20.7756 13.0049C20.9389 12.7865 21.0989 12.4032 20.9239 11.8065C20.4665 10.3699 17.7981 7.88909 17.6323 7.62743C17.6573 7.57909 17.6973 7.51493 17.7182 7.4816H17.7165C18.2431 6.78577 20.2531 3.77414 20.549 2.56915C20.5498 2.56748 20.5506 2.56498 20.5506 2.56248C20.7106 2.01249 20.564 1.65583 20.4123 1.45416C20.184 1.1525 19.8206 1 19.3298 1H17.279C16.5923 1 16.0715 1.34583 15.8082 1.97666C15.3673 3.09748 14.129 5.40245 13.2007 6.21828C13.1724 5.06246 13.1915 4.17997 13.2065 3.52414C13.2365 2.24499 13.3332 1 12.0057 1H8.78241C7.95076 1 7.15493 1.90832 8.01659 2.98664C8.76991 3.93163 8.28742 4.45829 8.44992 7.07993C7.81659 6.40077 6.68994 4.56663 5.89328 2.22249C5.66995 1.58833 5.33162 1.00083 4.37913 1.00083H2.32832C1.49666 1.00083 1 1.45416 1 2.21332C1 3.9183 4.77413 13.4999 11.1207 13.4999ZM4.37913 2.25082C4.55996 2.25082 4.57829 2.25082 4.71246 2.63165C5.52828 5.03412 7.35826 8.58908 8.69492 8.58908C9.69907 8.58908 9.69907 7.55993 9.69907 7.17243L9.69824 4.08747C9.64324 3.06664 9.27158 2.55832 9.02741 2.24999L11.9507 2.25332C11.9524 2.26749 11.934 5.66578 11.959 6.48911C11.959 7.65826 12.8874 8.32825 14.3365 6.8616C15.8657 5.13579 16.9232 2.55582 16.9657 2.45082C17.0282 2.30082 17.0823 2.24999 17.279 2.24999H19.3381C19.3373 2.25249 19.3373 2.25499 19.3365 2.25749C19.149 3.13248 17.2982 5.92078 16.679 6.7866C16.669 6.79994 16.6598 6.8141 16.6507 6.82827C16.3782 7.27327 16.1565 7.76493 16.6882 8.45658C16.7365 8.51492 16.8632 8.65158 17.0465 8.84158C17.6165 9.42991 19.5715 11.4416 19.7448 12.2415C19.6298 12.2599 19.5048 12.2465 17.5673 12.2507C17.1548 12.2507 16.8323 11.6341 15.6015 10.3924C14.4949 9.31574 13.7765 8.87575 13.1224 8.87575C11.8524 8.87575 11.9449 9.90657 11.9565 11.1532C11.9607 12.5049 11.9524 12.0774 11.9615 12.1624C11.8874 12.1915 11.6749 12.2499 11.1207 12.2499C5.83328 12.2499 2.38998 3.85747 2.25749 2.25332C2.30332 2.24915 2.93415 2.25165 4.37913 2.25082Z" fill="white" stroke="white" stroke-width="0.5"/>
</svg>
