<svg width="18" height="23" viewBox="0 0 18 23" fill="none" xmlns="http://www.w3.org/2000/svg">
<path fill-rule="evenodd" clip-rule="evenodd" d="M9 22.3276L9.65773 21.7533C15.1887 16.9237 18 12.7068 18 9C18 3.75066 13.9029 0 9 0C4.09705 0 0 3.75066 0 9C0 12.7068 2.81131 16.9237 8.34227 21.7533L9 22.3276ZM8.99997 19.6634C4.30658 15.4335 1.99997 11.8492 1.99997 9C1.99997 4.89661 5.16408 2 8.99997 2C12.8359 2 16 4.89661 16 9C16 11.8492 13.6934 15.4335 8.99997 19.6634ZM9.00003 4C11.7615 4 14 6.23857 14 9C14 11.7614 11.7615 14 9.00003 14C6.23861 14 4.00003 11.7614 4.00003 9C4.00003 6.23857 6.23861 4 9.00003 4ZM6 9C6 7.34315 7.34315 6 9 6C10.6569 6 12 7.34315 12 9C12 10.6569 10.6569 12 9 12C7.34315 12 6 10.6569 6 9Z" fill="#1047C5"/>
</svg>
