<svg width="21" height="21" viewBox="0 0 21 21" fill="none" xmlns="http://www.w3.org/2000/svg">
<path fill-rule="evenodd" clip-rule="evenodd" d="M9.85651 6.33839C10.3746 5.64018 10.5604 4.90433 9.97444 4.2548C8.65949 2.41482 7.77515 1.27698 7.22044 0.729026C6.16589 -0.312708 4.43112 -0.171797 3.51779 0.728135C3.02723 1.2115 2.86116 1.37749 2.35747 1.8891C-0.448184 4.69625 1.26285 10.6305 5.81139 15.1835C10.3589 19.7355 16.2926 21.4474 19.1041 18.6343C19.5689 18.1863 19.9624 17.7925 20.2728 17.4645C21.1678 16.5185 21.3037 14.8602 20.2669 13.7829C19.7354 13.2306 18.6503 12.389 16.7329 11.0174C16.1457 10.4923 15.4494 10.6061 14.811 11.0249C14.504 11.2264 14.2805 11.4302 13.8585 11.8525L13.0923 12.6192C12.9914 12.7202 11.621 12.0339 10.2907 10.7023C8.95972 9.37002 8.2739 7.99955 8.37435 7.89911L9.14112 7.13191C9.27499 6.9979 9.339 6.93303 9.42108 6.84676C9.59209 6.66703 9.73368 6.50393 9.85651 6.33839ZM14.5057 14.0334L15.2721 13.2666C15.5044 13.0342 15.6549 12.8912 15.7773 12.7927C17.457 13.9989 18.4297 14.7573 18.8271 15.1702C19.0656 15.4181 19.0286 15.8703 18.8212 16.0895C18.5342 16.3929 18.1613 16.7659 17.7037 17.2073C15.8857 19.0261 11.0959 17.6442 7.22513 13.7696C3.35315 9.8938 1.97188 5.10328 3.7762 3.29797C4.27786 2.78847 4.4368 2.6296 4.92035 2.15314C5.10166 1.9745 5.59552 1.93438 5.81608 2.15225C6.24314 2.57413 7.03534 3.58848 8.20071 5.21182C8.14038 5.28672 8.06503 5.37136 7.97333 5.46773C7.90603 5.53847 7.84996 5.5953 7.72738 5.718L6.96136 6.48444C5.65821 7.78749 6.76802 10.0052 8.87697 12.1162C10.9845 14.2258 13.203 15.3369 14.5057 14.0334Z" fill="#5C94FF"/>
</svg>
