<svg width="14" height="14" viewBox="0 0 14 14" fill="none" xmlns="http://www.w3.org/2000/svg">
<path fill-rule="evenodd" clip-rule="evenodd" d="M8.61752 10.032C7.73148 10.6427 6.6575 11.0002 5.5 11.0002C2.46243 11.0002 0 8.53781 0 5.50024C0 2.46268 2.46243 0.000244141 5.5 0.000244141C8.53757 0.000244141 11 2.46268 11 5.50024C11 6.65774 10.6424 7.73173 10.0317 8.61777L13.7071 12.2931L12.2929 13.7074L8.61752 10.032ZM5.5 9.00024C7.433 9.00024 9 7.43324 9 5.50024C9 3.56725 7.433 2.00024 5.5 2.00024C3.567 2.00024 2 3.56725 2 5.50024C2 7.43324 3.567 9.00024 5.5 9.00024Z" fill="#77839D"/>
</svg>
