<svg width="21" height="19" viewBox="0 0 21 19" fill="none" xmlns="http://www.w3.org/2000/svg">
<path fill-rule="evenodd" clip-rule="evenodd" d="M19.1198 2.50876L20.5345 2.67398L19.8986 3.94849C19.5885 4.57001 19.278 5.19154 18.9673 5.81307C18.9304 5.94471 18.8657 6.06011 18.7699 6.21036C18.7299 6.27314 18.5932 6.47284 18.5868 6.48243C18.5507 6.53657 18.524 6.57926 18.5048 6.61347V9.00201C18.5048 15.114 12.5898 18.9979 7.00378 18.9979C5.86075 18.9979 4.99231 18.9431 3.99789 18.7261C2.36139 18.369 1.14352 17.6591 0.586217 16.4185L0.0124548 15.1412L1.40683 15.0129C2.66825 14.8969 3.76193 14.6566 4.60183 14.3348C2.29601 13.964 1.00384 12.9513 1.00384 11.0494V10.0494H2.00384C2.22356 10.0494 2.42167 10.0315 2.59879 9.99883C0.868245 8.96413 0.0014659 7.30428 0.0014659 5.00201C0.0012768 4.90388 0.0012768 4.90388 0.000686691 4.79896C-0.00581443 3.63851 0.0565163 3.01845 0.374192 2.22708C0.577787 1.7199 0.872075 1.25037 1.26814 0.820157L2.02275 0.000488281L2.75642 0.838956C5.17418 3.6021 7.56419 5.27844 10.0044 5.48121C10.0148 2.93154 11.9418 1.00201 14.5046 1.00201C15.6993 1.00201 16.7831 1.4555 17.6347 2.27321C18.1009 2.369 18.5959 2.44758 19.1198 2.50876ZM16.9089 4.1625L16.6023 4.09309L16.3906 3.86076C15.8787 3.29904 15.2362 3.00201 14.5046 3.00201C13.0416 3.00201 12.0044 4.0444 12.0044 5.50201C12.0044 5.74022 11.9982 5.88991 11.9685 6.08664C11.8501 6.87165 11.4098 7.50201 10.5043 7.50201C7.50631 7.50201 4.8016 5.89591 2.16414 3.15277C2.02817 3.5661 1.99619 3.99096 2.00066 4.78776C2.00126 4.89432 2.00126 4.89432 2.00147 5.00201C2.00147 7.05002 2.83118 8.17026 4.79571 8.79467L5.4928 9.01624V9.74769C5.4928 10.6347 4.65246 11.4696 3.42293 11.8436C3.98656 12.2712 5.13925 12.502 7.00414 12.502H8.00414V13.502C8.00414 14.9347 6.35786 16.0565 3.87099 16.6423C4.68202 16.8908 5.7619 16.9979 7.00378 16.9979C11.6182 16.9979 16.5048 13.7893 16.5048 9.00201V6.50201C16.5048 6.20823 16.5899 5.95322 16.7314 5.68808C16.7867 5.58441 16.8476 5.48558 16.9228 5.37286C16.9369 5.35164 16.9894 5.27475 17.0311 5.21328L17.1104 5.05478C17.2388 4.79794 17.3672 4.5411 17.4955 4.28426C17.2961 4.24648 17.1005 4.2059 16.9089 4.1625Z" fill="#1047C5"/>
</svg>
